<svg width="238" height="37" viewBox="0 0 238 37" fill="none" xmlns="http://www.w3.org/2000/svg">
<path d="M12.6683 36H0.04425V0.912H12.3323C22.7003 0.912 29.8523 8.064 29.8523 18.528C29.8523 28.848 22.8443 36 12.6683 36ZM11.7563 6.576H6.18825V30.336H12.0923C19.1003 30.336 23.3723 25.824 23.3723 18.528C23.3723 11.088 19.0043 6.576 11.7563 6.576ZM41.7675 36.624C36.7275 36.624 33.6555 33.696 33.6555 29.232C33.6555 24.864 36.8235 22.128 42.4395 21.696L49.5435 21.168V20.64C49.5435 17.424 47.6235 16.128 44.6475 16.128C41.1915 16.128 39.2715 17.568 39.2715 20.064H34.2795C34.2795 14.928 38.5035 11.568 44.9355 11.568C51.3195 11.568 55.2555 15.024 55.2555 21.6V36H50.1195L49.6875 32.496C48.6795 34.944 45.4635 36.624 41.7675 36.624ZM43.6875 32.208C47.2875 32.208 49.5915 30.048 49.5915 26.4V25.152L44.6475 25.536C40.9995 25.872 39.6075 27.072 39.6075 28.992C39.6075 31.152 41.0475 32.208 43.6875 32.208ZM59.1844 28.8H64.7524C64.8004 30.864 66.3364 32.16 69.0244 32.16C71.7604 32.16 73.2484 31.056 73.2484 29.328C73.2484 28.128 72.6244 27.264 70.5124 26.784L66.2404 25.776C61.9684 24.816 59.9044 22.8 59.9044 19.008C59.9044 14.352 63.8404 11.568 69.3124 11.568C74.6404 11.568 78.2404 14.64 78.2884 19.248H72.7204C72.6724 17.232 71.3284 15.936 69.0724 15.936C66.7684 15.936 65.4244 16.992 65.4244 18.768C65.4244 20.112 66.4804 20.976 68.4964 21.456L72.7684 22.464C76.7524 23.376 78.7684 25.2 78.7684 28.848C78.7684 33.648 74.6884 36.624 68.8324 36.624C62.9284 36.624 59.1844 33.456 59.1844 28.8ZM89.0831 36H83.2271V0.287999H89.1311V15.36C90.6191 13.056 93.4031 11.568 96.8111 11.568C102.667 11.568 105.739 15.264 105.739 21.408V36H99.8831V22.8C99.8831 18.816 97.9151 16.896 94.9391 16.896C91.2431 16.896 89.0831 19.488 89.0831 23.04V36ZM116.917 36H111.493V0.287999H117.349V15.744C118.885 13.104 122.053 11.52 125.653 11.52C132.421 11.52 136.549 16.8 136.549 24.288C136.549 31.584 132.085 36.624 125.269 36.624C121.717 36.624 118.693 35.04 117.301 32.304L116.917 36ZM117.397 24.048C117.397 28.32 120.037 31.248 124.069 31.248C128.197 31.248 130.645 28.272 130.645 24.048C130.645 19.824 128.197 16.8 124.069 16.8C120.037 16.8 117.397 19.776 117.397 24.048ZM139.82 24.096C139.82 16.704 145.148 11.616 152.492 11.616C159.836 11.616 165.164 16.704 165.164 24.096C165.164 31.488 159.836 36.576 152.492 36.576C145.148 36.576 139.82 31.488 139.82 24.096ZM145.676 24.096C145.676 28.416 148.46 31.344 152.492 31.344C156.524 31.344 159.308 28.416 159.308 24.096C159.308 19.776 156.524 16.848 152.492 16.848C148.46 16.848 145.676 19.776 145.676 24.096ZM176.861 36.624C171.821 36.624 168.749 33.696 168.749 29.232C168.749 24.864 171.917 22.128 177.533 21.696L184.637 21.168V20.64C184.637 17.424 182.717 16.128 179.741 16.128C176.285 16.128 174.365 17.568 174.365 20.064H169.373C169.373 14.928 173.597 11.568 180.029 11.568C186.413 11.568 190.349 15.024 190.349 21.6V36H185.213L184.781 32.496C183.773 34.944 180.557 36.624 176.861 36.624ZM178.781 32.208C182.381 32.208 184.685 30.048 184.685 26.4V25.152L179.741 25.536C176.093 25.872 174.701 27.072 174.701 28.992C174.701 31.152 176.141 32.208 178.781 32.208ZM210.982 12.192V17.616H208.822C204.598 17.616 201.958 19.872 201.958 24.48V36H196.102V12.336H201.622L201.958 15.792C202.966 13.44 205.222 11.856 208.39 11.856C209.206 11.856 210.022 11.952 210.982 12.192ZM223.893 36.624C217.029 36.624 212.757 31.584 212.757 24.24C212.757 16.848 217.077 11.568 224.229 11.568C227.541 11.568 230.469 12.96 231.957 15.312V0.287999H237.765V36H232.389L232.005 32.304C230.565 35.04 227.493 36.624 223.893 36.624ZM225.189 31.248C229.269 31.248 231.909 28.32 231.909 24.048C231.909 19.776 229.269 16.8 225.189 16.8C221.109 16.8 218.613 19.824 218.613 24.048C218.613 28.272 221.109 31.248 225.189 31.248Z" fill="url(#paint0_linear_125_1236)"/>
<defs>
<linearGradient id="paint0_linear_125_1236" x1="193.698" y1="50" x2="16.5426" y2="38.5105" gradientUnits="userSpaceOnUse">
<stop stop-color="#3CFDF6"/>
<stop offset="1" stop-color="#FA51E9"/>
</linearGradient>
</defs>
</svg>
