<svg width="1198" height="350" viewBox="0 0 1198 350" fill="none" xmlns="http://www.w3.org/2000/svg">
<rect width="1198" height="350" rx="13" fill="#13132A"/>
<circle cx="188.738" cy="170.345" r="71.1592" stroke="#ADADAD" stroke-width="8.37167"/>
<circle cx="188.738" cy="170.345" r="71.1592" stroke="black" stroke-opacity="0.2" stroke-width="8.37167"/>
<path d="M260.495 170.345C260.495 186.67 254.786 202.489 244.342 215.109C233.898 227.728 219.365 236.366 203.218 239.55C187.071 242.735 170.31 240.27 155.791 232.574C141.272 224.879 129.893 212.43 123.593 197.348C117.293 182.266 116.461 165.484 121.24 149.862C126.019 134.24 136.113 120.745 149.802 111.676C163.49 102.606 179.927 98.5236 196.31 100.124C212.694 101.724 228.012 108.907 239.653 120.451" stroke="#ADADAD" stroke-width="11.9595"/>
<path d="M260.495 170.345C260.495 186.67 254.786 202.489 244.342 215.109C233.898 227.728 219.365 236.366 203.218 239.55C187.071 242.735 170.31 240.27 155.791 232.574C141.272 224.879 129.893 212.43 123.593 197.348C117.293 182.266 116.461 165.484 121.24 149.862C126.019 134.24 136.113 120.745 149.802 111.676C163.49 102.606 179.927 98.5236 196.31 100.124C212.694 101.724 228.012 108.907 239.653 120.451" stroke="black" stroke-opacity="0.2" stroke-width="11.9595"/>
<path d="M260.495 170.345C260.495 186.67 254.786 202.489 244.342 215.109C233.898 227.728 219.365 236.366 203.218 239.55C187.071 242.735 170.31 240.27 155.791 232.574C141.272 224.879 129.893 212.43 123.593 197.348C117.293 182.266 116.461 165.484 121.24 149.862C126.019 134.24 136.113 120.745 149.802 111.676C163.49 102.606 179.927 98.5236 196.31 100.124C212.694 101.724 228.012 108.907 239.653 120.451" stroke="url(#paint0_linear_138_1891)" stroke-width="11.9595"/>
<path d="M143.514 191.813C140.643 191.813 138.691 189.674 138.691 186.517C138.691 183.36 140.672 181.207 143.571 181.207C145.781 181.207 147.518 182.542 147.934 184.579H146.829C146.398 183.101 145.135 182.197 143.528 182.197C141.275 182.197 139.768 183.919 139.768 186.517C139.768 189.1 141.275 190.822 143.528 190.822C145.15 190.822 146.441 189.947 146.886 188.569H147.991C147.518 190.507 145.724 191.813 143.514 191.813ZM151.418 191.827C149.939 191.827 149.064 190.995 149.064 189.775C149.064 188.497 150.04 187.694 151.662 187.565L153.958 187.378V187.148C153.958 185.785 153.14 185.354 152.121 185.354C150.915 185.354 150.198 185.9 150.198 186.833H149.294C149.294 185.426 150.442 184.522 152.15 184.522C153.757 184.522 154.934 185.326 154.934 187.163V191.655H154.101L153.972 190.435C153.542 191.31 152.594 191.827 151.418 191.827ZM151.647 191.023C153.111 191.023 153.958 190.004 153.958 188.497V188.124L151.906 188.282C150.6 188.397 150.069 188.971 150.069 189.746C150.069 190.593 150.7 191.023 151.647 191.023ZM156.921 194.683V184.709H157.782L157.882 186.115C158.37 185.039 159.346 184.522 160.509 184.522C162.518 184.522 163.723 186.058 163.723 188.153C163.723 190.248 162.561 191.827 160.509 191.827C159.332 191.827 158.399 191.325 157.911 190.32V194.683H156.921ZM157.925 188.182C157.925 189.775 158.815 190.937 160.336 190.937C161.843 190.937 162.719 189.775 162.719 188.182C162.719 186.574 161.843 185.426 160.336 185.426C158.815 185.426 157.925 186.574 157.925 188.182ZM165.79 182.8C165.388 182.8 165.058 182.47 165.058 182.068C165.058 181.666 165.388 181.322 165.79 181.322C166.192 181.322 166.536 181.666 166.536 182.068C166.536 182.47 166.192 182.8 165.79 182.8ZM165.302 191.655V184.709H166.292V191.655H165.302ZM169.95 191.655H168.974V185.541H167.582V184.709H168.974V182.513H169.95V184.709H171.342V185.541H169.95V191.655ZM174.514 191.827C173.036 191.827 172.161 190.995 172.161 189.775C172.161 188.497 173.137 187.694 174.758 187.565L177.055 187.378V187.148C177.055 185.785 176.237 185.354 175.218 185.354C174.012 185.354 173.295 185.9 173.295 186.833H172.39C172.39 185.426 173.539 184.522 175.246 184.522C176.854 184.522 178.031 185.326 178.031 187.163V191.655H177.198L177.069 190.435C176.638 191.31 175.691 191.827 174.514 191.827ZM174.744 191.023C176.208 191.023 177.055 190.004 177.055 188.497V188.124L175.002 188.282C173.696 188.397 173.165 188.971 173.165 189.746C173.165 190.593 173.797 191.023 174.744 191.023ZM181.051 191.655H180.061V181.193H181.051V191.655ZM193.509 191.655H187.353V181.379H193.495V182.326H188.386V186.029H193.021V186.962H188.386V190.708H193.509V191.655ZM194.617 184.709H195.679V183.36C195.679 181.795 196.526 181.193 197.602 181.193C197.846 181.193 198.133 181.207 198.363 181.25V182.111H197.76C196.899 182.111 196.669 182.542 196.669 183.36V184.709H199.97V183.36C199.97 181.795 200.831 181.193 201.865 181.193C202.109 181.193 202.396 181.207 202.625 181.25V182.111H202.037C201.19 182.111 200.961 182.542 200.961 183.36V184.709H205.252V191.655H204.261V185.541H200.961V191.655H199.97V185.541H196.669V191.655H195.679V185.541H194.617V184.709ZM204.749 182.585C204.362 182.585 204.06 182.298 204.06 181.91C204.06 181.508 204.362 181.193 204.749 181.193C205.151 181.193 205.438 181.508 205.438 181.91C205.438 182.298 205.151 182.585 204.749 182.585ZM206.789 188.196C206.789 186.015 208.124 184.522 210.147 184.522C211.755 184.522 212.931 185.455 213.204 186.89H212.214C211.956 185.928 211.123 185.397 210.162 185.397C208.755 185.397 207.765 186.474 207.765 188.182C207.765 189.832 208.683 190.937 210.09 190.937C211.123 190.937 211.956 190.363 212.228 189.473H213.233C212.903 190.894 211.669 191.827 210.09 191.827C208.124 191.827 206.789 190.377 206.789 188.196ZM217.646 191.827C215.608 191.827 214.245 190.363 214.245 188.182C214.245 186.015 215.594 184.522 217.575 184.522C219.455 184.522 220.732 185.857 220.732 187.823V188.311H215.207C215.278 190.004 216.168 190.98 217.661 190.98C218.794 190.98 219.526 190.492 219.785 189.574H220.732C220.359 191.038 219.282 191.827 217.646 191.827ZM217.575 185.369C216.269 185.369 215.408 186.23 215.235 187.593H219.742C219.742 186.259 218.881 185.369 217.575 185.369ZM223.305 191.655H222.315V184.709H223.176L223.32 185.914C223.779 185.024 224.697 184.522 225.702 184.522C227.611 184.522 228.4 185.656 228.4 187.407V191.655H227.41V187.622C227.41 186 226.678 185.426 225.53 185.426C224.109 185.426 223.305 186.46 223.305 188.024V191.655ZM229.886 188.196C229.886 186.015 231.221 184.522 233.244 184.522C234.851 184.522 236.028 185.455 236.301 186.89H235.311C235.052 185.928 234.22 185.397 233.258 185.397C231.852 185.397 230.862 186.474 230.862 188.182C230.862 189.832 231.78 190.937 233.187 190.937C234.22 190.937 235.052 190.363 235.325 189.473H236.33C236 190.894 234.765 191.827 233.187 191.827C231.221 191.827 229.886 190.377 229.886 188.196ZM236.986 194.683V193.865H237.747C238.35 193.865 238.953 193.822 239.297 192.889L239.598 192.071L236.786 184.709H237.833L240.072 190.765L242.268 184.709H243.287L240.101 193.248C239.699 194.338 239.024 194.783 238.034 194.783C237.618 194.783 237.302 194.755 236.986 194.683Z" fill="#ADADAD"/>
<path d="M160.807 169.422C160.807 166.925 162.214 164.916 164.395 164.084C162.558 163.251 161.553 161.673 161.553 159.635C161.553 156.305 164.51 154.009 168.844 154.009C173.149 154.009 176.048 156.277 176.048 159.692C176.048 161.73 175.015 163.309 173.149 164.084C175.359 164.859 176.795 166.897 176.795 169.422C176.795 173.211 173.666 175.708 168.786 175.708C163.936 175.708 160.807 173.24 160.807 169.422ZM164.883 159.951C164.883 161.701 166.404 162.821 168.786 162.821C171.14 162.821 172.633 161.73 172.633 159.979C172.633 158.228 171.14 157.138 168.786 157.138C166.404 157.138 164.883 158.228 164.883 159.951ZM164.395 169.164C164.395 171.202 166.088 172.465 168.815 172.465C171.485 172.465 173.178 171.202 173.178 169.164C173.178 167.126 171.485 165.863 168.786 165.863C166.088 165.863 164.395 167.126 164.395 169.164ZM182.209 160.553L186.744 154.382H190.934L185.911 161.07C186.428 160.926 186.973 160.84 187.49 160.84C191.824 160.84 194.752 163.883 194.752 168.131C194.752 172.608 191.422 175.737 186.945 175.737C182.41 175.737 179.023 172.408 179.023 168.102C179.023 165.576 179.855 163.739 182.209 160.553ZM182.783 168.131C182.783 170.685 184.476 172.465 186.945 172.465C189.327 172.465 191.049 170.685 191.049 168.131C191.049 165.605 189.356 163.854 186.945 163.854C184.447 163.854 182.783 165.605 182.783 168.131ZM207.729 159.491C207.729 162.735 205.433 165.002 202.247 165.002C199.061 165.002 196.764 162.735 196.764 159.491C196.764 156.277 199.061 153.98 202.247 153.98C205.433 153.98 207.729 156.277 207.729 159.491ZM219.239 154.411L203.309 175.364H199.807L215.737 154.411H219.239ZM204.945 159.491C204.945 157.826 203.854 156.678 202.247 156.678C200.639 156.678 199.577 157.826 199.577 159.491C199.577 161.156 200.668 162.304 202.247 162.304C203.854 162.304 204.945 161.156 204.945 159.491ZM222.31 170.226C222.31 173.441 220.042 175.737 216.856 175.737C213.642 175.737 211.374 173.441 211.374 170.226C211.374 167.011 213.642 164.715 216.856 164.715C220.042 164.715 222.31 167.011 222.31 170.226ZM219.526 170.226C219.526 168.561 218.435 167.413 216.856 167.413C215.249 167.413 214.158 168.561 214.158 170.226C214.158 171.891 215.249 173.039 216.856 173.039C218.435 173.039 219.526 171.891 219.526 170.226Z" fill="white"/>
<path d="M105.282 272.498V281.827H110.004V282.774H104.249V272.498H105.282ZM113.33 282.946C111.852 282.946 110.976 282.114 110.976 280.894C110.976 279.617 111.952 278.813 113.574 278.684L115.87 278.497V278.268C115.87 276.904 115.052 276.474 114.033 276.474C112.828 276.474 112.11 277.019 112.11 277.952H111.206C111.206 276.546 112.354 275.641 114.062 275.641C115.669 275.641 116.846 276.445 116.846 278.282V282.774H116.014L115.885 281.554C115.454 282.43 114.507 282.946 113.33 282.946ZM113.56 282.143C115.023 282.143 115.87 281.124 115.87 279.617V279.244L113.818 279.401C112.512 279.516 111.981 280.09 111.981 280.865C111.981 281.712 112.612 282.143 113.56 282.143ZM118.245 280.822H119.192C119.192 281.626 119.795 282.128 120.771 282.128C121.847 282.128 122.478 281.669 122.478 280.923C122.478 280.349 122.191 280.019 121.373 279.818L120.182 279.516C118.977 279.215 118.388 278.583 118.388 277.636C118.388 276.416 119.407 275.641 120.9 275.641C122.364 275.641 123.311 276.445 123.354 277.737H122.392C122.364 276.933 121.804 276.459 120.871 276.459C119.895 276.459 119.35 276.876 119.35 277.622C119.35 278.153 119.723 278.526 120.484 278.713L121.675 279.014C122.88 279.315 123.426 279.875 123.426 280.88C123.426 282.128 122.364 282.946 120.785 282.946C119.221 282.946 118.245 282.114 118.245 280.822ZM126.649 282.774H125.673V276.66H124.281V275.828H125.673V273.632H126.649V275.828H128.041V276.66H126.649V282.774ZM142.682 277.636C142.682 280.75 140.659 282.946 137.788 282.946C134.904 282.946 132.895 280.75 132.895 277.636C132.895 274.522 134.918 272.312 137.788 272.312C140.673 272.312 142.682 274.508 142.682 277.636ZM141.62 277.636C141.62 275.067 140.056 273.316 137.788 273.316C135.521 273.316 133.971 275.067 133.971 277.636C133.971 280.205 135.521 281.956 137.788 281.956C140.056 281.956 141.62 280.191 141.62 277.636ZM144.341 285.802V275.828H145.202L145.302 277.234C145.79 276.158 146.766 275.641 147.929 275.641C149.938 275.641 151.143 277.177 151.143 279.272C151.143 281.368 149.981 282.946 147.929 282.946C146.752 282.946 145.819 282.444 145.331 281.439V285.802H144.341ZM145.345 279.301C145.345 280.894 146.235 282.056 147.756 282.056C149.263 282.056 150.139 280.894 150.139 279.301C150.139 277.694 149.263 276.546 147.756 276.546C146.235 276.546 145.345 277.694 145.345 279.301ZM154.245 282.774H153.269V276.66H151.877V275.828H153.269V273.632H154.245V275.828H155.637V276.66H154.245V282.774ZM157.414 273.919C157.012 273.919 156.682 273.589 156.682 273.187C156.682 272.785 157.012 272.441 157.414 272.441C157.816 272.441 158.16 272.785 158.16 273.187C158.16 273.589 157.816 273.919 157.414 273.919ZM156.926 282.774V275.828H157.916V282.774H156.926ZM160.972 282.774H159.981V275.828H160.843L160.957 276.818C161.302 276.086 162.077 275.641 163.053 275.641C164.143 275.641 164.961 276.215 165.292 277.12C165.607 276.215 166.454 275.641 167.573 275.641C169.08 275.641 170.071 276.617 170.071 278.225V282.774H169.109V278.426C169.109 277.234 168.449 276.531 167.387 276.531C166.224 276.531 165.535 277.407 165.535 278.483V282.774H164.56V278.411C164.56 277.234 163.885 276.546 162.837 276.546C161.675 276.546 160.972 277.407 160.972 278.469V282.774ZM172.55 273.919C172.149 273.919 171.819 273.589 171.819 273.187C171.819 272.785 172.149 272.441 172.55 272.441C172.952 272.441 173.297 272.785 173.297 273.187C173.297 273.589 172.952 273.919 172.55 273.919ZM172.062 282.774V275.828H173.053V282.774H172.062ZM179.882 282.774H174.644V281.985L178.663 276.66H174.644V275.828H179.882V276.632L175.85 281.942H179.882V282.774ZM184.17 282.946C182.132 282.946 180.768 281.482 180.768 279.301C180.768 277.134 182.117 275.641 184.098 275.641C185.978 275.641 187.255 276.976 187.255 278.942V279.43H181.73C181.802 281.124 182.692 282.1 184.184 282.1C185.318 282.1 186.05 281.612 186.308 280.693H187.255C186.882 282.157 185.806 282.946 184.17 282.946ZM184.098 276.488C182.792 276.488 181.931 277.349 181.759 278.713H186.265C186.265 277.378 185.404 276.488 184.098 276.488ZM191.565 282.946C189.542 282.946 188.351 281.396 188.351 279.315C188.351 277.22 189.542 275.641 191.608 275.641C192.756 275.641 193.675 276.144 194.163 277.148V272.312H195.153V282.774H194.292L194.192 281.353C193.704 282.43 192.728 282.946 191.565 282.946ZM191.738 282.042C193.259 282.042 194.149 280.894 194.149 279.287C194.149 277.694 193.259 276.531 191.738 276.531C190.231 276.531 189.355 277.694 189.355 279.287C189.355 280.894 190.231 282.042 191.738 282.042ZM198.21 277.435C197.722 277.435 197.306 277.019 197.306 276.546C197.306 276.058 197.722 275.656 198.21 275.656C198.698 275.656 199.114 276.058 199.114 276.546C199.114 277.019 198.698 277.435 198.21 277.435ZM198.21 282.932C197.722 282.932 197.306 282.53 197.306 282.056C197.306 281.569 197.722 281.152 198.21 281.152C198.698 281.152 199.114 281.569 199.114 282.056C199.114 282.53 198.698 282.932 198.21 282.932ZM211.637 282.774H204.863V281.956L208.149 279.086C210.044 277.435 210.532 276.718 210.532 275.498C210.532 274.106 209.699 273.259 208.336 273.259C206.915 273.259 205.982 274.292 205.939 275.885H204.906C204.963 273.733 206.327 272.312 208.35 272.312C210.288 272.312 211.579 273.56 211.579 275.44C211.579 276.933 210.905 277.923 208.852 279.717L206.456 281.813H211.637V282.774ZM220.016 282.946C217.992 282.946 216.801 281.396 216.801 279.315C216.801 277.22 217.992 275.641 220.059 275.641C221.207 275.641 222.126 276.144 222.614 277.148V272.312H223.604V282.774H222.743L222.642 281.353C222.154 282.43 221.178 282.946 220.016 282.946ZM220.188 282.042C221.709 282.042 222.599 280.894 222.599 279.287C222.599 277.694 221.709 276.531 220.188 276.531C218.681 276.531 217.806 277.694 217.806 279.287C217.806 280.894 218.681 282.042 220.188 282.042ZM227.665 282.946C226.187 282.946 225.311 282.114 225.311 280.894C225.311 279.617 226.287 278.813 227.909 278.684L230.205 278.497V278.268C230.205 276.904 229.387 276.474 228.368 276.474C227.163 276.474 226.445 277.019 226.445 277.952H225.541C225.541 276.546 226.689 275.641 228.397 275.641C230.004 275.641 231.181 276.445 231.181 278.282V282.774H230.349L230.22 281.554C229.789 282.43 228.842 282.946 227.665 282.946ZM227.895 282.143C229.358 282.143 230.205 281.124 230.205 279.617V279.244L228.153 279.401C226.847 279.516 226.316 280.09 226.316 280.865C226.316 281.712 226.947 282.143 227.895 282.143ZM232.311 285.802V284.984H233.071C233.674 284.984 234.277 284.941 234.621 284.008L234.923 283.19L232.11 275.828H233.158L235.396 281.884L237.592 275.828H238.611L235.425 284.367C235.023 285.458 234.349 285.903 233.358 285.903C232.942 285.903 232.627 285.874 232.311 285.802ZM239.139 280.822H240.086C240.086 281.626 240.689 282.128 241.665 282.128C242.741 282.128 243.373 281.669 243.373 280.923C243.373 280.349 243.086 280.019 242.267 279.818L241.076 279.516C239.871 279.215 239.282 278.583 239.282 277.636C239.282 276.416 240.301 275.641 241.794 275.641C243.258 275.641 244.205 276.445 244.248 277.737H243.286C243.258 276.933 242.698 276.459 241.765 276.459C240.789 276.459 240.244 276.876 240.244 277.622C240.244 278.153 240.617 278.526 241.378 278.713L242.569 279.014C243.774 279.315 244.32 279.875 244.32 280.88C244.32 282.128 243.258 282.946 241.679 282.946C240.115 282.946 239.139 282.114 239.139 280.822ZM251.925 282.946C250.447 282.946 249.571 282.114 249.571 280.894C249.571 279.617 250.547 278.813 252.169 278.684L254.465 278.497V278.268C254.465 276.904 253.647 276.474 252.628 276.474C251.423 276.474 250.705 277.019 250.705 277.952H249.801C249.801 276.546 250.949 275.641 252.657 275.641C254.264 275.641 255.441 276.445 255.441 278.282V282.774H254.609L254.48 281.554C254.049 282.43 253.102 282.946 251.925 282.946ZM252.155 282.143C253.619 282.143 254.465 281.124 254.465 279.617V279.244L252.413 279.401C251.107 279.516 250.576 280.09 250.576 280.865C250.576 281.712 251.208 282.143 252.155 282.143ZM256.955 279.1C256.955 277.206 258.175 275.641 260.213 275.641C261.418 275.641 262.337 276.201 262.781 277.22L262.882 275.828H263.743V282.559C263.743 284.625 262.423 285.974 260.385 285.974C258.605 285.974 257.357 284.97 257.084 283.291H258.074C258.289 284.41 259.15 285.07 260.399 285.07C261.82 285.07 262.767 284.109 262.767 282.659V281.009C262.293 281.985 261.332 282.559 260.141 282.559C258.16 282.559 256.955 280.994 256.955 279.1ZM257.945 279.086C257.945 280.507 258.82 281.669 260.284 281.669C261.791 281.669 262.681 280.578 262.681 279.086C262.681 277.608 261.82 276.517 260.299 276.517C258.806 276.517 257.945 277.679 257.945 279.086ZM265.321 279.301C265.321 277.177 266.814 275.641 268.852 275.641C270.89 275.641 272.382 277.177 272.382 279.301C272.382 281.411 270.89 282.946 268.852 282.946C266.814 282.946 265.321 281.411 265.321 279.301ZM266.326 279.287C266.326 280.923 267.359 282.056 268.852 282.056C270.33 282.056 271.378 280.923 271.378 279.287C271.378 277.679 270.33 276.531 268.852 276.531C267.359 276.531 266.326 277.679 266.326 279.287Z" fill="#ADADAD"/>
<path d="M437.14 109.94V108.22C434.5 108.06 432.76 106.56 432.64 104.22H434.64C434.68 105.5 435.62 106.34 437.14 106.5V101.52L436.42 101.36C434.06 100.82 432.84 99.5 432.84 97.44C432.84 95.16 434.54 93.54 437.14 93.32V91.58H438.42V93.3C440.84 93.52 442.38 95 442.52 97.32H440.58C440.5 96.04 439.72 95.22 438.42 95.04V100L439.2 100.18C441.6 100.72 442.76 101.98 442.76 103.98C442.76 106.36 441.06 107.96 438.42 108.2V109.94H437.14ZM436.82 99.62L437.14 99.7V95.04C435.66 95.24 434.76 96.1 434.76 97.38C434.76 98.54 435.42 99.28 436.82 99.62ZM438.8 101.92L438.42 101.84V106.46C439.92 106.26 440.84 105.4 440.84 104.14C440.84 102.98 440.18 102.24 438.8 101.92ZM447.283 95.3H444.243V93.54H449.163V108H447.283V95.3ZM461.508 107.98L451.748 108V106.5L456.408 102.48C458.748 100.46 459.408 99.48 459.408 97.94C459.408 96.12 458.368 95.04 456.628 95.04C454.848 95.04 453.688 96.34 453.648 98.4H451.688C451.748 95.3 453.708 93.28 456.648 93.28C459.548 93.28 461.408 95.04 461.408 97.82C461.408 99.88 460.388 101.34 457.828 103.56L454.828 106.16H461.508V107.98ZM466.688 107.22C466.688 108.66 465.608 109.86 464.188 110.04V109.2C465.008 109.06 465.588 108.52 465.588 107.9C465.448 107.98 465.288 108.02 465.048 108.02C464.388 108.02 463.828 107.54 463.828 106.8C463.828 106 464.368 105.42 465.168 105.42C466.008 105.42 466.688 106.12 466.688 107.22ZM470.154 95.3H467.114V93.54H472.034V108H470.154V95.3ZM474.191 93.54H484.291V95.34L478.811 108H476.771L482.311 95.34H474.191V93.54ZM485.089 100.78C485.089 96.3 487.409 93.26 491.049 93.26C494.669 93.26 496.989 96.3 496.989 100.78C496.989 105.28 494.769 108.26 491.049 108.26C487.309 108.26 485.089 105.28 485.089 100.78ZM487.029 100.78C487.029 104.34 488.509 106.5 491.049 106.5C493.589 106.5 495.049 104.34 495.049 100.78C495.049 97.18 493.589 95.02 491.049 95.02C488.509 95.02 487.029 97.18 487.029 100.78Z" fill="white"/>
<path d="M432.133 69.819V69.0899H437.8V69.819H435.358V77H434.563V69.819H432.133ZM437.534 74.3265C437.534 72.6914 438.683 71.5093 440.251 71.5093C441.82 71.5093 442.969 72.6914 442.969 74.3265C442.969 75.9505 441.82 77.1326 440.251 77.1326C438.683 77.1326 437.534 75.9505 437.534 74.3265ZM438.307 74.3154C438.307 75.5749 439.102 76.4476 440.251 76.4476C441.389 76.4476 442.196 75.5749 442.196 74.3154C442.196 73.0781 441.389 72.1943 440.251 72.1943C439.102 72.1943 438.307 73.0781 438.307 74.3154ZM445.361 77H444.609V72.2937H443.538V71.653H444.609V69.9627H445.361V71.653H446.432V72.2937H445.361V77ZM448.874 77.1326C447.736 77.1326 447.062 76.4918 447.062 75.5528C447.062 74.5695 447.814 73.9509 449.062 73.8514L450.83 73.7078V73.531C450.83 72.4815 450.2 72.1501 449.416 72.1501C448.488 72.1501 447.935 72.5699 447.935 73.288H447.239C447.239 72.2053 448.123 71.5093 449.438 71.5093C450.675 71.5093 451.581 72.128 451.581 73.5421V77H450.94L450.841 76.061C450.509 76.7349 449.78 77.1326 448.874 77.1326ZM449.051 76.5139C450.178 76.5139 450.83 75.7295 450.83 74.5695V74.2823L449.25 74.4038C448.244 74.4922 447.836 74.9341 447.836 75.5307C447.836 76.1825 448.322 76.5139 449.051 76.5139ZM453.906 77H453.144V68.9463H453.906V77ZM461.983 77.1215C459.773 77.1215 458.271 75.4754 458.271 73.045C458.271 70.6145 459.795 68.9573 462.027 68.9573C463.728 68.9573 465.065 69.9848 465.385 71.5535H464.535C464.203 70.4156 463.231 69.7196 461.994 69.7196C460.259 69.7196 459.099 71.0453 459.099 73.045C459.099 75.0335 460.259 76.3592 461.994 76.3592C463.242 76.3592 464.237 75.6853 464.579 74.6248H465.43C465.065 76.1162 463.684 77.1215 461.983 77.1215ZM468.067 77.1326C466.929 77.1326 466.255 76.4918 466.255 75.5528C466.255 74.5695 467.007 73.9509 468.255 73.8514L470.023 73.7078V73.531C470.023 72.4815 469.393 72.1501 468.609 72.1501C467.681 72.1501 467.128 72.5699 467.128 73.288H466.432C466.432 72.2053 467.316 71.5093 468.631 71.5093C469.868 71.5093 470.774 72.128 470.774 73.5421V77H470.133L470.034 76.061C469.702 76.7349 468.973 77.1326 468.067 77.1326ZM468.244 76.5139C469.371 76.5139 470.023 75.7295 470.023 74.5695V74.2823L468.443 74.4038C467.438 74.4922 467.029 74.9341 467.029 75.5307C467.029 76.1825 467.515 76.5139 468.244 76.5139ZM472.304 79.331V71.653H472.966L473.044 72.7356C473.419 71.907 474.171 71.5093 475.066 71.5093C476.612 71.5093 477.54 72.6914 477.54 74.3044C477.54 75.9173 476.645 77.1326 475.066 77.1326C474.16 77.1326 473.442 76.7459 473.066 75.9726V79.331H472.304ZM473.077 74.3265C473.077 75.5528 473.762 76.4476 474.933 76.4476C476.093 76.4476 476.767 75.5528 476.767 74.3265C476.767 73.0891 476.093 72.2053 474.933 72.2053C473.762 72.2053 473.077 73.0891 473.077 74.3265ZM479.131 70.1836C478.822 70.1836 478.567 69.9295 478.567 69.6202C478.567 69.3109 478.822 69.0457 479.131 69.0457C479.44 69.0457 479.705 69.3109 479.705 69.6202C479.705 69.9295 479.44 70.1836 479.131 70.1836ZM478.755 77V71.653H479.518V77H478.755ZM482.333 77H481.582V72.2937H480.511V71.653H481.582V69.9627H482.333V71.653H483.405V72.2937H482.333V77ZM485.847 77.1326C484.709 77.1326 484.035 76.4918 484.035 75.5528C484.035 74.5695 484.786 73.9509 486.035 73.8514L487.802 73.7078V73.531C487.802 72.4815 487.173 72.1501 486.388 72.1501C485.46 72.1501 484.908 72.5699 484.908 73.288H484.212C484.212 72.2053 485.096 71.5093 486.41 71.5093C487.648 71.5093 488.554 72.128 488.554 73.5421V77H487.913L487.814 76.061C487.482 76.7349 486.753 77.1326 485.847 77.1326ZM486.024 76.5139C487.151 76.5139 487.802 75.7295 487.802 74.5695V74.2823L486.223 74.4038C485.217 74.4922 484.809 74.9341 484.809 75.5307C484.809 76.1825 485.295 76.5139 486.024 76.5139ZM490.879 77H490.117V68.9463H490.879V77ZM498.138 77H495.73V69.0899H498.116C500.502 69.0899 502.093 70.6808 502.093 73.045C502.093 75.4091 500.513 77 498.138 77ZM498.083 69.819H496.525V76.2709H498.105C500.038 76.2709 501.276 75.0114 501.276 73.045C501.276 71.0674 500.038 69.819 498.083 69.819ZM505.607 77.1326C504.038 77.1326 502.989 76.0057 502.989 74.3265C502.989 72.6583 504.027 71.5093 505.552 71.5093C506.999 71.5093 507.982 72.5368 507.982 74.0503V74.4259H503.729C503.784 75.7295 504.469 76.4808 505.618 76.4808C506.491 76.4808 507.054 76.1051 507.253 75.3981H507.982C507.695 76.525 506.866 77.1326 505.607 77.1326ZM505.552 72.1611C504.546 72.1611 503.883 72.824 503.751 73.8735H507.22C507.22 72.8461 506.557 72.1611 505.552 72.1611ZM509.201 79.331V71.653H509.864L509.941 72.7356C510.317 71.907 511.068 71.5093 511.963 71.5093C513.51 71.5093 514.438 72.6914 514.438 74.3044C514.438 75.9173 513.543 77.1326 511.963 77.1326C511.057 77.1326 510.339 76.7459 509.963 75.9726V79.331H509.201ZM509.974 74.3265C509.974 75.5528 510.659 76.4476 511.83 76.4476C512.99 76.4476 513.664 75.5528 513.664 74.3265C513.664 73.0891 512.99 72.2053 511.83 72.2053C510.659 72.2053 509.974 73.0891 509.974 74.3265ZM516.448 77H515.686V68.9463H516.448V77ZM517.694 74.3265C517.694 72.6914 518.843 71.5093 520.411 71.5093C521.98 71.5093 523.129 72.6914 523.129 74.3265C523.129 75.9505 521.98 77.1326 520.411 77.1326C518.843 77.1326 517.694 75.9505 517.694 74.3265ZM518.467 74.3154C518.467 75.5749 519.262 76.4476 520.411 76.4476C521.549 76.4476 522.356 75.5749 522.356 74.3154C522.356 73.0781 521.549 72.1943 520.411 72.1943C519.262 72.1943 518.467 73.0781 518.467 74.3154ZM523.634 79.331V78.7013H524.22C524.684 78.7013 525.148 78.6682 525.413 77.9501L525.645 77.3204L523.48 71.653H524.286L526.01 76.315L527.7 71.653H528.484L526.032 78.2263C525.722 79.0659 525.203 79.4084 524.441 79.4084C524.12 79.4084 523.877 79.3863 523.634 79.331ZM531.435 77.1326C529.866 77.1326 528.817 76.0057 528.817 74.3265C528.817 72.6583 529.855 71.5093 531.38 71.5093C532.827 71.5093 533.81 72.5368 533.81 74.0503V74.4259H529.557C529.612 75.7295 530.297 76.4808 531.446 76.4808C532.319 76.4808 532.882 76.1051 533.081 75.3981H533.81C533.523 76.525 532.694 77.1326 531.435 77.1326ZM531.38 72.1611C530.374 72.1611 529.712 72.824 529.579 73.8735H533.048C533.048 72.8461 532.385 72.1611 531.38 72.1611ZM537.128 77.1326C535.57 77.1326 534.653 75.9394 534.653 74.3375C534.653 72.7246 535.57 71.5093 537.161 71.5093C538.045 71.5093 538.752 71.896 539.128 72.6693V68.9463H539.89V77H539.227L539.15 75.9063C538.774 76.7349 538.023 77.1326 537.128 77.1326ZM537.261 76.4366C538.432 76.4366 539.117 75.5528 539.117 74.3154C539.117 73.0891 538.432 72.1943 537.261 72.1943C536.101 72.1943 535.427 73.0891 535.427 74.3154C535.427 75.5528 536.101 76.4366 537.261 76.4366Z" fill="#ADADAD"/>
<path d="M432.16 168.54H442.26V170.34L436.78 183H434.74L440.28 170.34H432.16V168.54ZM443.178 183.24C442.398 183.24 441.738 182.6 441.738 181.84C441.738 181.06 442.398 180.42 443.178 180.42C443.938 180.42 444.598 181.06 444.598 181.84C444.598 182.6 443.938 183.24 443.178 183.24ZM456.625 182.98L446.865 183V181.5L451.525 177.48C453.865 175.46 454.525 174.48 454.525 172.94C454.525 171.12 453.485 170.04 451.745 170.04C449.965 170.04 448.805 171.34 448.765 173.4H446.805C446.865 170.3 448.825 168.28 451.765 168.28C454.665 168.28 456.525 170.04 456.525 172.82C456.525 174.88 455.505 176.34 452.945 178.56L449.945 181.16H456.625V182.98ZM465.589 171.96C465.589 174.1 464.069 175.64 461.929 175.64C459.809 175.64 458.289 174.1 458.289 171.96C458.289 169.8 459.809 168.26 461.929 168.26C464.069 168.26 465.589 169.8 465.589 171.96ZM473.209 168.56L462.229 183H460.309L471.289 168.56H473.209ZM464.049 171.96C464.049 170.66 463.189 169.76 461.929 169.76C460.689 169.76 459.829 170.66 459.829 171.96C459.829 173.24 460.689 174.14 461.929 174.14C463.169 174.14 464.049 173.24 464.049 171.96ZM475.269 179.58C475.269 181.72 473.729 183.26 471.609 183.26C469.489 183.26 467.949 181.72 467.949 179.58C467.949 177.42 469.489 175.9 471.609 175.9C473.729 175.9 475.269 177.42 475.269 179.58ZM473.709 179.58C473.709 178.28 472.869 177.38 471.609 177.38C470.369 177.38 469.509 178.28 469.509 179.58C469.509 180.86 470.369 181.76 471.609 181.76C472.849 181.76 473.709 180.86 473.709 179.58ZM487.131 186.46H485.571C483.731 184.16 482.511 180.68 482.511 177.06C482.511 173.66 483.611 170.1 485.571 167.68H487.131C485.551 169.88 484.431 173.32 484.431 177.06C484.431 180.6 485.431 184.12 487.131 186.46ZM488.737 175.46H492.937V171.26H494.537V175.46H498.737V177.06H494.537V181.28H492.937V177.06H488.737V175.46ZM504.08 170.3H501.04V168.54H505.96V183H504.08V170.3ZM510.385 183.24C509.605 183.24 508.945 182.6 508.945 181.84C508.945 181.06 509.605 180.42 510.385 180.42C511.145 180.42 511.805 181.06 511.805 181.84C511.805 182.6 511.145 183.24 510.385 183.24ZM524.58 180.08H522.86V183H520.98V180.08H513.5V178.34L520.32 168.54H522.86V178.34H524.58V180.08ZM515.62 178.34H520.98V170.62L515.62 178.34ZM533.675 171.96C533.675 174.1 532.155 175.64 530.015 175.64C527.895 175.64 526.375 174.1 526.375 171.96C526.375 169.8 527.895 168.26 530.015 168.26C532.155 168.26 533.675 169.8 533.675 171.96ZM541.295 168.56L530.315 183H528.395L539.375 168.56H541.295ZM532.135 171.96C532.135 170.66 531.275 169.76 530.015 169.76C528.775 169.76 527.915 170.66 527.915 171.96C527.915 173.24 528.775 174.14 530.015 174.14C531.255 174.14 532.135 173.24 532.135 171.96ZM543.355 179.58C543.355 181.72 541.815 183.26 539.695 183.26C537.575 183.26 536.035 181.72 536.035 179.58C536.035 177.42 537.575 175.9 539.695 175.9C541.815 175.9 543.355 177.42 543.355 179.58ZM541.795 179.58C541.795 178.28 540.955 177.38 539.695 177.38C538.455 177.38 537.595 178.28 537.595 179.58C537.595 180.86 538.455 181.76 539.695 181.76C540.935 181.76 541.795 180.86 541.795 179.58ZM545.748 186.46H544.168C545.868 184.12 546.868 180.6 546.868 177.06C546.868 173.32 545.768 169.88 544.168 167.68H545.748C547.688 170.1 548.788 173.66 548.788 177.06C548.788 180.68 547.568 184.16 545.748 186.46Z" fill="white"/>
<path d="M435.977 149.094H433.757V152H432.961V144.09H435.977C437.502 144.09 438.463 145.084 438.463 146.576C438.463 148.012 437.491 149.094 435.977 149.094ZM435.867 144.808H433.757V148.376H435.822C436.971 148.376 437.634 147.647 437.634 146.565C437.634 145.471 436.96 144.808 435.867 144.808ZM438.969 149.326C438.969 147.691 440.117 146.509 441.686 146.509C443.255 146.509 444.404 147.691 444.404 149.326C444.404 150.95 443.255 152.133 441.686 152.133C440.117 152.133 438.969 150.95 438.969 149.326ZM439.742 149.315C439.742 150.575 440.537 151.448 441.686 151.448C442.824 151.448 443.631 150.575 443.631 149.315C443.631 148.078 442.824 147.194 441.686 147.194C440.537 147.194 439.742 148.078 439.742 149.315ZM446.796 152H446.044V147.294H444.973V146.653H446.044V144.963H446.796V146.653H447.867V147.294H446.796V152ZM451.049 152.133C449.48 152.133 448.43 151.006 448.43 149.326C448.43 147.658 449.469 146.509 450.993 146.509C452.441 146.509 453.424 147.537 453.424 149.05V149.426H449.17C449.226 150.73 449.911 151.481 451.06 151.481C451.932 151.481 452.496 151.105 452.695 150.398H453.424C453.137 151.525 452.308 152.133 451.049 152.133ZM450.993 147.161C449.988 147.161 449.325 147.824 449.193 148.874H452.661C452.661 147.846 451.999 147.161 450.993 147.161ZM455.405 152H454.643V146.653H455.305L455.416 147.581C455.769 146.896 456.476 146.509 457.25 146.509C458.719 146.509 459.327 147.382 459.327 148.73V152H458.564V148.896C458.564 147.647 458.001 147.205 457.117 147.205C456.023 147.205 455.405 148.001 455.405 149.205V152ZM462.072 152H461.321V147.294H460.249V146.653H461.321V144.963H462.072V146.653H463.144V147.294H462.072V152ZM464.512 145.184C464.203 145.184 463.949 144.93 463.949 144.62C463.949 144.311 464.203 144.046 464.512 144.046C464.822 144.046 465.087 144.311 465.087 144.62C465.087 144.93 464.822 145.184 464.512 145.184ZM464.137 152V146.653H464.899V152H464.137ZM468.024 152.133C466.886 152.133 466.212 151.492 466.212 150.553C466.212 149.57 466.964 148.951 468.212 148.851L469.98 148.708V148.531C469.98 147.482 469.35 147.15 468.565 147.15C467.637 147.15 467.085 147.57 467.085 148.288H466.389C466.389 147.205 467.273 146.509 468.588 146.509C469.825 146.509 470.731 147.128 470.731 148.542V152H470.09L469.991 151.061C469.659 151.735 468.93 152.133 468.024 152.133ZM468.201 151.514C469.328 151.514 469.98 150.73 469.98 149.57V149.282L468.4 149.404C467.394 149.492 466.986 149.934 466.986 150.531C466.986 151.182 467.472 151.514 468.201 151.514ZM473.056 152H472.294V143.946H473.056V152ZM477.907 152H477.1L480.006 144.09H480.989L483.928 152H483.099L482.326 149.901H478.68L477.907 152ZM480.393 145.206L478.923 149.205H482.072L480.591 145.206C480.558 145.095 480.503 144.963 480.492 144.885C480.481 144.952 480.437 145.095 480.393 145.206ZM488.043 149.094H485.823V152H485.027V144.09H488.043C489.568 144.09 490.529 145.084 490.529 146.576C490.529 148.012 489.557 149.094 488.043 149.094ZM487.933 144.808H485.823V148.376H487.889C489.038 148.376 489.701 147.647 489.701 146.565C489.701 145.471 489.027 144.808 487.933 144.808ZM493.647 148.697L490.963 144.09H491.858L493.813 147.504C493.901 147.669 493.968 147.802 494.045 147.979C494.144 147.78 494.144 147.78 494.288 147.504L496.221 144.09H497.094L494.443 148.697V152H493.647V148.697Z" fill="#ADADAD"/>
<path d="M654.84 108.24C651.88 108.24 649.96 106.36 649.96 103.48H651.9C651.9 105.34 653.04 106.48 654.88 106.48C656.84 106.48 658.1 105.18 658.1 103.22C658.1 101.36 656.92 99.98 654.9 99.98C653.68 99.98 652.56 100.56 651.9 101.38L650.24 100.96L652 93.54H659.24V95.34H653.42L652.46 99.18C653.22 98.6 654.18 98.3 655.26 98.3C658.2 98.3 660.1 100.36 660.1 103.14C660.1 106.14 657.96 108.24 654.84 108.24ZM663.147 108.24C662.367 108.24 661.707 107.6 661.707 106.84C661.707 106.06 662.367 105.42 663.147 105.42C663.907 105.42 664.567 106.06 664.567 106.84C664.567 107.6 663.907 108.24 663.147 108.24ZM666.639 103.98C666.639 102.24 667.659 100.84 669.259 100.26C667.899 99.68 667.159 98.54 667.159 97.08C667.159 94.82 669.099 93.28 671.979 93.28C674.819 93.28 676.739 94.82 676.739 97.1C676.739 98.58 675.979 99.72 674.619 100.26C676.239 100.78 677.279 102.22 677.279 104C677.279 106.54 675.159 108.24 671.959 108.24C668.739 108.24 666.639 106.54 666.639 103.98ZM668.959 97.2C668.959 98.62 670.139 99.54 671.939 99.54C673.759 99.54 674.899 98.64 674.899 97.24C674.899 95.86 673.759 94.98 671.939 94.98C670.139 94.98 668.959 95.86 668.959 97.2ZM668.559 103.84C668.559 105.46 669.899 106.5 671.959 106.5C673.999 106.5 675.339 105.46 675.339 103.84C675.339 102.24 674.019 101.22 671.939 101.22C669.879 101.22 668.559 102.24 668.559 103.84ZM686.339 96.96C686.339 99.1 684.819 100.64 682.679 100.64C680.559 100.64 679.039 99.1 679.039 96.96C679.039 94.8 680.559 93.26 682.679 93.26C684.819 93.26 686.339 94.8 686.339 96.96ZM693.959 93.56L682.979 108H681.059L692.039 93.56H693.959ZM684.799 96.96C684.799 95.66 683.939 94.76 682.679 94.76C681.439 94.76 680.579 95.66 680.579 96.96C680.579 98.24 681.439 99.14 682.679 99.14C683.919 99.14 684.799 98.24 684.799 96.96ZM696.019 104.58C696.019 106.72 694.479 108.26 692.359 108.26C690.239 108.26 688.699 106.72 688.699 104.58C688.699 102.42 690.239 100.9 692.359 100.9C694.479 100.9 696.019 102.42 696.019 104.58ZM694.459 104.58C694.459 103.28 693.619 102.38 692.359 102.38C691.119 102.38 690.259 103.28 690.259 104.58C690.259 105.86 691.119 106.76 692.359 106.76C693.599 106.76 694.459 105.86 694.459 104.58Z" fill="white"/>
<path d="M653.187 77.1215C650.978 77.1215 649.475 75.4754 649.475 73.045C649.475 70.6145 651 68.9573 653.231 68.9573C654.933 68.9573 656.269 69.9848 656.59 71.5535H655.739C655.408 70.4156 654.435 69.7196 653.198 69.7196C651.464 69.7196 650.304 71.0453 650.304 73.045C650.304 75.0335 651.464 76.3592 653.198 76.3592C654.446 76.3592 655.441 75.6853 655.783 74.6248H656.634C656.269 76.1162 654.888 77.1215 653.187 77.1215ZM661.6 71.653H662.362V77H661.699L661.6 76.0941C661.302 76.7128 660.562 77.1326 659.722 77.1326C658.462 77.1326 657.778 76.2709 657.778 74.9672V71.6419H658.551V74.7242C658.551 75.9947 659.114 76.4476 659.965 76.4476C660.992 76.4476 661.6 75.7627 661.6 74.4922V71.653ZM666.745 71.5867V72.2716H666.325C665.342 72.2716 664.712 72.9345 664.712 73.9509V77H663.95V71.653H664.668L664.724 72.4815C664.933 71.907 665.497 71.5314 666.248 71.5314C666.414 71.5314 666.557 71.5425 666.745 71.5867ZM670.554 71.5867V72.2716H670.134C669.151 72.2716 668.521 72.9345 668.521 73.9509V77H667.759V71.653H668.477L668.532 72.4815C668.742 71.907 669.305 71.5314 670.057 71.5314C670.222 71.5314 670.366 71.5425 670.554 71.5867ZM673.605 77.1326C672.036 77.1326 670.986 76.0057 670.986 74.3265C670.986 72.6583 672.025 71.5093 673.549 71.5093C674.997 71.5093 675.98 72.5368 675.98 74.0503V74.4259H671.727C671.782 75.7295 672.467 76.4808 673.616 76.4808C674.488 76.4808 675.052 76.1051 675.251 75.3981H675.98C675.693 76.525 674.864 77.1326 673.605 77.1326ZM673.549 72.1611C672.544 72.1611 671.881 72.824 671.749 73.8735H675.218C675.218 72.8461 674.555 72.1611 673.549 72.1611ZM677.961 77H677.199V71.653H677.862L677.972 72.581C678.326 71.896 679.033 71.5093 679.806 71.5093C681.275 71.5093 681.883 72.3821 681.883 73.7299V77H681.121V73.8956C681.121 72.6472 680.557 72.2053 679.673 72.2053C678.58 72.2053 677.961 73.0008 677.961 74.205V77ZM684.628 77H683.877V72.2937H682.806V71.653H683.877V69.9627H684.628V71.653H685.7V72.2937H684.628V77ZM691.48 77L689.127 69.0899H689.956L691.557 74.5253C691.668 74.912 691.767 75.3097 691.867 75.829C691.999 75.2545 692.11 74.912 692.231 74.5253L693.955 69.0899H694.783L696.507 74.5253C696.628 74.923 696.739 75.3208 696.86 75.829C696.982 75.2213 697.081 74.8347 697.17 74.5364L698.805 69.0899H699.611L697.236 77H696.485L694.364 70.283L692.242 77H691.48ZM702.195 77.1326C700.626 77.1326 699.576 76.0057 699.576 74.3265C699.576 72.6583 700.615 71.5093 702.139 71.5093C703.587 71.5093 704.57 72.5368 704.57 74.0503V74.4259H700.317C700.372 75.7295 701.057 76.4808 702.206 76.4808C703.079 76.4808 703.642 76.1051 703.841 75.3981H704.57C704.283 76.525 703.454 77.1326 702.195 77.1326ZM702.139 72.1611C701.134 72.1611 700.471 72.824 700.339 73.8735H703.808C703.808 72.8461 703.145 72.1611 702.139 72.1611ZM706.164 70.1836C705.855 70.1836 705.601 69.9295 705.601 69.6202C705.601 69.3109 705.855 69.0457 706.164 69.0457C706.474 69.0457 706.739 69.3109 706.739 69.6202C706.739 69.9295 706.474 70.1836 706.164 70.1836ZM705.789 77V71.653H706.551V77H705.789ZM707.776 74.1718C707.776 72.7135 708.715 71.5093 710.284 71.5093C711.212 71.5093 711.919 71.9402 712.261 72.7246L712.339 71.653H713.002V76.8343C713.002 78.4251 711.985 79.4636 710.416 79.4636C709.047 79.4636 708.085 78.6903 707.876 77.3977H708.638C708.804 78.2594 709.466 78.7676 710.428 78.7676C711.521 78.7676 712.25 78.0274 712.25 76.9116V75.6411C711.886 76.3924 711.146 76.8343 710.229 76.8343C708.704 76.8343 707.776 75.6301 707.776 74.1718ZM708.538 74.1608C708.538 75.2545 709.212 76.1493 710.339 76.1493C711.499 76.1493 712.184 75.3097 712.184 74.1608C712.184 73.0229 711.521 72.1832 710.35 72.1832C709.201 72.1832 708.538 73.0781 708.538 74.1608ZM715.355 76.989H714.592V68.9463H715.355V72.581C715.697 71.9402 716.349 71.5093 717.244 71.5093C718.647 71.5093 719.276 72.3821 719.276 73.7299V77H718.514V73.8956C718.514 72.6472 717.929 72.2053 717.1 72.2053C715.951 72.2053 715.355 73.056 715.355 74.0834V76.989ZM722.022 77H721.271V72.2937H720.199V71.653H721.271V69.9627H722.022V71.653H723.094V72.2937H722.022V77ZM726.275 77.1326C724.706 77.1326 723.657 76.0057 723.657 74.3265C723.657 72.6583 724.695 71.5093 726.22 71.5093C727.667 71.5093 728.65 72.5368 728.65 74.0503V74.4259H724.397C724.452 75.7295 725.137 76.4808 726.286 76.4808C727.159 76.4808 727.722 76.1051 727.921 75.3981H728.65C728.363 76.525 727.535 77.1326 726.275 77.1326ZM726.22 72.1611C725.215 72.1611 724.552 72.824 724.419 73.8735H727.888C727.888 72.8461 727.225 72.1611 726.22 72.1611ZM731.968 77.1326C730.41 77.1326 729.493 75.9394 729.493 74.3375C729.493 72.7246 730.41 71.5093 732.001 71.5093C732.885 71.5093 733.592 71.896 733.968 72.6693V68.9463H734.73V77H734.067L733.99 75.9063C733.614 76.7349 732.863 77.1326 731.968 77.1326ZM732.101 76.4366C733.272 76.4366 733.957 75.5528 733.957 74.3154C733.957 73.0891 733.272 72.1943 732.101 72.1943C730.941 72.1943 730.267 73.0891 730.267 74.3154C730.267 75.5528 730.941 76.4366 732.101 76.4366ZM739.55 77H738.744L741.649 69.0899H742.633L745.571 77H744.743L743.969 74.901H740.324L739.55 77ZM742.036 70.2057L740.567 74.205H743.715L742.235 70.2057C742.202 70.0952 742.147 69.9627 742.136 69.8853C742.125 69.9516 742.08 70.0952 742.036 70.2057ZM749.687 74.0945H747.466V77H746.671V69.0899H749.687C751.212 69.0899 752.173 70.0842 752.173 71.5756C752.173 73.0118 751.2 74.0945 749.687 74.0945ZM749.576 69.808H747.466V73.3764H749.532C750.681 73.3764 751.344 72.6472 751.344 71.5646C751.344 70.4709 750.67 69.808 749.576 69.808ZM755.291 73.6968L752.606 69.0899H753.501L755.457 72.5036C755.545 72.6693 755.611 72.8019 755.689 72.9787C755.788 72.7798 755.788 72.7798 755.932 72.5036L757.865 69.0899H758.738L756.086 73.6968V77H755.291V73.6968Z" fill="#ADADAD"/>
<path d="M649.16 168.54H659.26V170.34L653.78 183H651.74L657.28 170.34H649.16V168.54ZM660.178 183.24C659.398 183.24 658.738 182.6 658.738 181.84C658.738 181.06 659.398 180.42 660.178 180.42C660.938 180.42 661.598 181.06 661.598 181.84C661.598 182.6 660.938 183.24 660.178 183.24ZM673.625 182.98L663.865 183V181.5L668.525 177.48C670.865 175.46 671.525 174.48 671.525 172.94C671.525 171.12 670.485 170.04 668.745 170.04C666.965 170.04 665.805 171.34 665.765 173.4H663.805C663.865 170.3 665.825 168.28 668.765 168.28C671.665 168.28 673.525 170.04 673.525 172.82C673.525 174.88 672.505 176.34 669.945 178.56L666.945 181.16H673.625V182.98ZM682.589 171.96C682.589 174.1 681.069 175.64 678.929 175.64C676.809 175.64 675.289 174.1 675.289 171.96C675.289 169.8 676.809 168.26 678.929 168.26C681.069 168.26 682.589 169.8 682.589 171.96ZM690.209 168.56L679.229 183H677.309L688.289 168.56H690.209ZM681.049 171.96C681.049 170.66 680.189 169.76 678.929 169.76C677.689 169.76 676.829 170.66 676.829 171.96C676.829 173.24 677.689 174.14 678.929 174.14C680.169 174.14 681.049 173.24 681.049 171.96ZM692.269 179.58C692.269 181.72 690.729 183.26 688.609 183.26C686.489 183.26 684.949 181.72 684.949 179.58C684.949 177.42 686.489 175.9 688.609 175.9C690.729 175.9 692.269 177.42 692.269 179.58ZM690.709 179.58C690.709 178.28 689.869 177.38 688.609 177.38C687.369 177.38 686.509 178.28 686.509 179.58C686.509 180.86 687.369 181.76 688.609 181.76C689.849 181.76 690.709 180.86 690.709 179.58ZM704.131 186.46H702.571C700.731 184.16 699.511 180.68 699.511 177.06C699.511 173.66 700.611 170.1 702.571 167.68H704.131C702.551 169.88 701.431 173.32 701.431 177.06C701.431 180.6 702.431 184.12 704.131 186.46ZM705.737 175.46H709.937V171.26H711.537V175.46H715.737V177.06H711.537V181.28H709.937V177.06H705.737V175.46ZM721.08 170.3H718.04V168.54H722.96V183H721.08V170.3ZM727.385 183.24C726.605 183.24 725.945 182.6 725.945 181.84C725.945 181.06 726.605 180.42 727.385 180.42C728.145 180.42 728.805 181.06 728.805 181.84C728.805 182.6 728.145 183.24 727.385 183.24ZM741.58 180.08H739.86V183H737.98V180.08H730.5V178.34L737.32 168.54H739.86V178.34H741.58V180.08ZM732.62 178.34H737.98V170.62L732.62 178.34ZM750.675 171.96C750.675 174.1 749.155 175.64 747.015 175.64C744.895 175.64 743.375 174.1 743.375 171.96C743.375 169.8 744.895 168.26 747.015 168.26C749.155 168.26 750.675 169.8 750.675 171.96ZM758.295 168.56L747.315 183H745.395L756.375 168.56H758.295ZM749.135 171.96C749.135 170.66 748.275 169.76 747.015 169.76C745.775 169.76 744.915 170.66 744.915 171.96C744.915 173.24 745.775 174.14 747.015 174.14C748.255 174.14 749.135 173.24 749.135 171.96ZM760.355 179.58C760.355 181.72 758.815 183.26 756.695 183.26C754.575 183.26 753.035 181.72 753.035 179.58C753.035 177.42 754.575 175.9 756.695 175.9C758.815 175.9 760.355 177.42 760.355 179.58ZM758.795 179.58C758.795 178.28 757.955 177.38 756.695 177.38C755.455 177.38 754.595 178.28 754.595 179.58C754.595 180.86 755.455 181.76 756.695 181.76C757.935 181.76 758.795 180.86 758.795 179.58ZM762.748 186.46H761.168C762.868 184.12 763.868 180.6 763.868 177.06C763.868 173.32 762.768 169.88 761.168 167.68H762.748C764.688 170.1 765.788 173.66 765.788 177.06C765.788 180.68 764.568 184.16 762.748 186.46Z" fill="white"/>
<path d="M652.977 149.094H650.757V152H649.961V144.09H652.977C654.502 144.09 655.463 145.084 655.463 146.576C655.463 148.012 654.491 149.094 652.977 149.094ZM652.867 144.808H650.757V148.376H652.822C653.971 148.376 654.634 147.647 654.634 146.565C654.634 145.471 653.96 144.808 652.867 144.808ZM655.969 149.326C655.969 147.691 657.117 146.509 658.686 146.509C660.255 146.509 661.404 147.691 661.404 149.326C661.404 150.95 660.255 152.133 658.686 152.133C657.117 152.133 655.969 150.95 655.969 149.326ZM656.742 149.315C656.742 150.575 657.537 151.448 658.686 151.448C659.824 151.448 660.631 150.575 660.631 149.315C660.631 148.078 659.824 147.194 658.686 147.194C657.537 147.194 656.742 148.078 656.742 149.315ZM663.796 152H663.044V147.294H661.973V146.653H663.044V144.963H663.796V146.653H664.867V147.294H663.796V152ZM668.049 152.133C666.48 152.133 665.43 151.006 665.43 149.326C665.43 147.658 666.469 146.509 667.993 146.509C669.441 146.509 670.424 147.537 670.424 149.05V149.426H666.17C666.226 150.73 666.911 151.481 668.06 151.481C668.932 151.481 669.496 151.105 669.695 150.398H670.424C670.137 151.525 669.308 152.133 668.049 152.133ZM667.993 147.161C666.988 147.161 666.325 147.824 666.193 148.874H669.661C669.661 147.846 668.999 147.161 667.993 147.161ZM672.405 152H671.643V146.653H672.305L672.416 147.581C672.769 146.896 673.476 146.509 674.25 146.509C675.719 146.509 676.327 147.382 676.327 148.73V152H675.564V148.896C675.564 147.647 675.001 147.205 674.117 147.205C673.023 147.205 672.405 148.001 672.405 149.205V152ZM679.072 152H678.321V147.294H677.249V146.653H678.321V144.963H679.072V146.653H680.144V147.294H679.072V152ZM681.512 145.184C681.203 145.184 680.949 144.93 680.949 144.62C680.949 144.311 681.203 144.046 681.512 144.046C681.822 144.046 682.087 144.311 682.087 144.62C682.087 144.93 681.822 145.184 681.512 145.184ZM681.137 152V146.653H681.899V152H681.137ZM685.024 152.133C683.886 152.133 683.212 151.492 683.212 150.553C683.212 149.57 683.964 148.951 685.212 148.851L686.98 148.708V148.531C686.98 147.482 686.35 147.15 685.565 147.15C684.637 147.15 684.085 147.57 684.085 148.288H683.389C683.389 147.205 684.273 146.509 685.588 146.509C686.825 146.509 687.731 147.128 687.731 148.542V152H687.09L686.991 151.061C686.659 151.735 685.93 152.133 685.024 152.133ZM685.201 151.514C686.328 151.514 686.98 150.73 686.98 149.57V149.282L685.4 149.404C684.394 149.492 683.986 149.934 683.986 150.531C683.986 151.182 684.472 151.514 685.201 151.514ZM690.056 152H689.294V143.946H690.056V152ZM694.907 152H694.1L697.006 144.09H697.989L700.928 152H700.099L699.326 149.901H695.68L694.907 152ZM697.393 145.206L695.923 149.205H699.072L697.591 145.206C697.558 145.095 697.503 144.963 697.492 144.885C697.481 144.952 697.437 145.095 697.393 145.206ZM705.043 149.094H702.823V152H702.027V144.09H705.043C706.568 144.09 707.529 145.084 707.529 146.576C707.529 148.012 706.557 149.094 705.043 149.094ZM704.933 144.808H702.823V148.376H704.889C706.038 148.376 706.701 147.647 706.701 146.565C706.701 145.471 706.027 144.808 704.933 144.808ZM710.647 148.697L707.963 144.09H708.858L710.813 147.504C710.901 147.669 710.968 147.802 711.045 147.979C711.144 147.78 711.144 147.78 711.288 147.504L713.221 144.09H714.094L711.443 148.697V152H710.647V148.697Z" fill="#ADADAD"/>
<g clip-path="url(#clip0_138_1891)">
<rect x="1107" y="25" width="48.2549" height="23" rx="11.5" fill="#13132A"/>
<rect x="1107" y="25" width="48.2549" height="23" rx="11.5" fill="url(#paint1_linear_138_1891)"/>
<circle cx="1142.5" cy="36.5" r="10.5" fill="white"/>
</g>
<path d="M956.64 28.54V41.18H963V43H954.68V28.54H956.64ZM968.834 43.24C965.954 43.24 963.974 41.16 963.974 38.12C963.974 35.06 965.914 32.94 968.754 32.94C971.534 32.94 973.354 34.86 973.354 37.76V38.46L965.794 38.48C965.934 40.54 967.014 41.68 968.874 41.68C970.334 41.68 971.294 41.08 971.614 39.96H973.374C972.894 42.06 971.254 43.24 968.834 43.24ZM968.754 34.52C967.114 34.52 966.074 35.5 965.834 37.22H971.474C971.474 35.6 970.414 34.52 968.754 34.52ZM978.216 43.24C976.116 43.24 974.876 42.06 974.876 40.28C974.876 38.48 976.216 37.36 978.516 37.18L981.596 36.94V36.66C981.596 35.02 980.616 34.44 979.296 34.44C977.716 34.44 976.816 35.14 976.816 36.32H975.176C975.176 34.28 976.856 32.94 979.376 32.94C981.796 32.94 983.436 34.22 983.436 36.86V43H981.836L981.636 41.42C981.136 42.54 979.796 43.24 978.216 43.24ZM978.756 41.78C980.536 41.78 981.616 40.62 981.616 38.78V38.26L979.116 38.46C977.456 38.62 976.776 39.26 976.776 40.22C976.776 41.26 977.536 41.78 978.756 41.78ZM991.64 33.14V34.86H990.8C989.02 34.86 987.92 35.94 987.92 37.82V43H986.04V33.24H987.8L987.92 34.72C988.32 33.7 989.3 33.02 990.64 33.02C990.98 33.02 991.26 33.06 991.64 33.14ZM995.283 43H993.403V33.22H995.103L995.303 34.72C995.923 33.6 997.163 32.94 998.543 32.94C1001.12 32.94 1002.3 34.52 1002.3 37.02V43H1000.42V37.44C1000.42 35.46 999.503 34.66 998.063 34.66C996.303 34.66 995.283 35.92 995.283 37.82V43ZM1005.83 30.9C1005.15 30.9 1004.59 30.34 1004.59 29.66C1004.59 28.96 1005.15 28.42 1005.83 28.42C1006.51 28.42 1007.07 28.96 1007.07 29.66C1007.07 30.34 1006.51 30.9 1005.83 30.9ZM1004.91 43V33.22H1006.79V43H1004.91ZM1011.4 43H1009.52V33.22H1011.22L1011.42 34.72C1012.04 33.6 1013.28 32.94 1014.66 32.94C1017.24 32.94 1018.42 34.52 1018.42 37.02V43H1016.54V37.44C1016.54 35.46 1015.62 34.66 1014.18 34.66C1012.42 34.66 1011.4 35.92 1011.4 37.82V43ZM1020.4 37.86C1020.4 35.1 1022.18 32.94 1025.02 32.94C1026.6 32.94 1027.82 33.66 1028.44 34.88L1028.58 33.22H1030.26V42.6C1030.26 45.68 1028.36 47.64 1025.36 47.64C1022.7 47.64 1020.88 46.14 1020.52 43.66H1022.4C1022.64 45.1 1023.72 45.94 1025.36 45.94C1027.2 45.94 1028.4 44.74 1028.4 42.88V40.92C1027.76 42.06 1026.48 42.74 1024.94 42.74C1022.16 42.74 1020.4 40.6 1020.4 37.86ZM1022.28 37.82C1022.28 39.66 1023.42 41.1 1025.26 41.1C1027.16 41.1 1028.32 39.74 1028.32 37.82C1028.32 35.94 1027.2 34.58 1025.28 34.58C1023.4 34.58 1022.28 36.02 1022.28 37.82ZM1040.68 43H1038.76V28.54H1040.68L1045.66 40.7L1050.64 28.54H1052.6V43H1050.68V37.28C1050.68 34.58 1050.7 33.6 1050.8 32.58L1046.58 43H1044.74L1040.54 32.62C1040.64 33.32 1040.68 34.8 1040.68 36.82V43ZM1055.01 38.1C1055.01 35.08 1057.17 32.96 1060.11 32.96C1063.03 32.96 1065.19 35.08 1065.19 38.1C1065.19 41.12 1063.03 43.24 1060.11 43.24C1057.17 43.24 1055.01 41.12 1055.01 38.1ZM1056.91 38.1C1056.91 40.14 1058.21 41.56 1060.11 41.56C1061.99 41.56 1063.31 40.14 1063.31 38.1C1063.31 36.06 1061.99 34.64 1060.11 34.64C1058.21 34.64 1056.91 36.06 1056.91 38.1ZM1071.19 43.24C1068.35 43.24 1066.63 41.12 1066.63 38.14C1066.63 35.14 1068.37 32.94 1071.27 32.94C1072.77 32.94 1074.03 33.6 1074.69 34.8V28.28H1076.55V43H1074.87L1074.71 41.22C1074.07 42.56 1072.75 43.24 1071.19 43.24ZM1071.57 41.54C1073.49 41.54 1074.67 40.12 1074.67 38.08C1074.67 36.08 1073.49 34.64 1071.57 34.64C1069.65 34.64 1068.53 36.08 1068.53 38.08C1068.53 40.1 1069.65 41.54 1071.57 41.54ZM1083.48 43.24C1080.6 43.24 1078.62 41.16 1078.62 38.12C1078.62 35.06 1080.56 32.94 1083.4 32.94C1086.18 32.94 1088 34.86 1088 37.76V38.46L1080.44 38.48C1080.58 40.54 1081.66 41.68 1083.52 41.68C1084.98 41.68 1085.94 41.08 1086.26 39.96H1088.02C1087.54 42.06 1085.9 43.24 1083.48 43.24ZM1083.4 34.52C1081.76 34.52 1080.72 35.5 1080.48 37.22H1086.12C1086.12 35.6 1085.06 34.52 1083.4 34.52Z" fill="white"/>
<path d="M32.456 49H29.264L35.6 31.456H38.744L45.08 49H41.84L40.424 44.944H33.872L32.456 49ZM36.776 36.688L34.784 42.352H39.536L37.52 36.688C37.376 36.232 37.208 35.704 37.16 35.344C37.088 35.68 36.944 36.208 36.776 36.688ZM50.3519 31.456V49H47.2799V31.456H50.3519ZM76.7176 40.216C76.7176 45.544 73.2136 49.288 68.1736 49.288C63.1576 49.288 59.7016 45.568 59.7016 40.216C59.7016 34.888 63.1816 31.144 68.1976 31.144C73.2136 31.144 76.7176 34.864 76.7176 40.216ZM73.4776 40.216C73.4776 36.472 71.4136 34.096 68.1976 34.096C64.9816 34.096 62.9176 36.472 62.9176 40.216C62.9176 43.96 64.9816 46.336 68.1976 46.336C71.4136 46.336 73.4776 43.912 73.4776 40.216ZM79.1448 54.496V37.144H81.8568L82.0488 38.944C82.7688 37.576 84.3288 36.784 86.1288 36.784C89.4648 36.784 91.6728 39.208 91.6728 42.928C91.6728 46.624 89.6568 49.312 86.1288 49.312C84.3528 49.312 82.8168 48.616 82.0728 47.416V54.496H79.1448ZM82.0968 43.072C82.0968 45.208 83.4168 46.672 85.4328 46.672C87.4968 46.672 88.7208 45.184 88.7208 43.072C88.7208 40.96 87.4968 39.448 85.4328 39.448C83.4168 39.448 82.0968 40.936 82.0968 43.072ZM97.919 49H94.991V39.592H92.711V37.144H94.991V33.448H97.919V37.144H100.223V39.592H97.919V49ZM103.507 34.768C102.499 34.768 101.707 33.976 101.707 32.992C101.707 32.008 102.499 31.24 103.507 31.24C104.467 31.24 105.259 32.008 105.259 32.992C105.259 33.976 104.467 34.768 103.507 34.768ZM102.043 49V37.144H104.971V49H102.043ZM110.924 49H107.996V37.144H110.684L110.924 38.536C111.524 37.552 112.724 36.784 114.428 36.784C116.228 36.784 117.476 37.672 118.1 39.04C118.7 37.672 120.092 36.784 121.892 36.784C124.772 36.784 126.356 38.512 126.356 41.248V49H123.452V42.016C123.452 40.312 122.54 39.424 121.148 39.424C119.732 39.424 118.652 40.336 118.652 42.28V49H115.724V41.992C115.724 40.336 114.836 39.448 113.444 39.448C112.052 39.448 110.924 40.36 110.924 42.28V49ZM130.695 34.768C129.687 34.768 128.895 33.976 128.895 32.992C128.895 32.008 129.687 31.24 130.695 31.24C131.655 31.24 132.447 32.008 132.447 32.992C132.447 33.976 131.655 34.768 130.695 34.768ZM129.231 49V37.144H132.159V49H129.231ZM144.136 49H134.56V46.6L140.464 39.592H134.56V37.144H144.136V39.568L138.136 46.552H144.136V49ZM150.056 49.312C147.536 49.312 146 47.848 146 45.616C146 43.432 147.584 42.064 150.392 41.848L153.944 41.584V41.32C153.944 39.712 152.984 39.064 151.496 39.064C149.768 39.064 148.808 39.784 148.808 41.032H146.312C146.312 38.464 148.424 36.784 151.64 36.784C154.832 36.784 156.8 38.512 156.8 41.8V49H154.232L154.016 47.248C153.512 48.472 151.904 49.312 150.056 49.312ZM151.016 47.104C152.816 47.104 153.968 46.024 153.968 44.2V43.576L151.496 43.768C149.672 43.936 148.976 44.536 148.976 45.496C148.976 46.576 149.696 47.104 151.016 47.104ZM163.544 49H160.616V39.592H158.336V37.144H160.616V33.448H163.544V37.144H165.848V39.592H163.544V49ZM169.132 34.768C168.124 34.768 167.332 33.976 167.332 32.992C167.332 32.008 168.124 31.24 169.132 31.24C170.092 31.24 170.884 32.008 170.884 32.992C170.884 33.976 170.092 34.768 169.132 34.768ZM167.668 49V37.144H170.596V49H167.668ZM172.925 43.048C172.925 39.352 175.589 36.808 179.261 36.808C182.933 36.808 185.597 39.352 185.597 43.048C185.597 46.744 182.933 49.288 179.261 49.288C175.589 49.288 172.925 46.744 172.925 43.048ZM175.853 43.048C175.853 45.208 177.245 46.672 179.261 46.672C181.277 46.672 182.669 45.208 182.669 43.048C182.669 40.888 181.277 39.424 179.261 39.424C177.245 39.424 175.853 40.888 175.853 43.048ZM190.846 49H187.918V37.144H190.63L190.87 38.68C191.614 37.48 193.054 36.784 194.662 36.784C197.638 36.784 199.174 38.632 199.174 41.704V49H196.246V42.4C196.246 40.408 195.262 39.448 193.75 39.448C191.95 39.448 190.846 40.696 190.846 42.616V49ZM216.368 49.288C211.256 49.288 207.944 45.736 207.944 40.24C207.944 34.792 211.376 31.168 216.512 31.168C220.664 31.168 223.76 33.592 224.36 37.36H221.12C220.52 35.32 218.768 34.12 216.44 34.12C213.2 34.12 211.16 36.472 211.16 40.216C211.16 43.936 213.224 46.336 216.44 46.336C218.816 46.336 220.64 45.088 221.216 43.144H224.408C223.736 46.84 220.52 49.288 216.368 49.288ZM232.035 49.312C228.507 49.312 226.035 46.744 226.035 43.072C226.035 39.352 228.459 36.784 231.939 36.784C235.491 36.784 237.747 39.16 237.747 42.856V43.744L228.819 43.768C229.035 45.856 230.139 46.912 232.083 46.912C233.691 46.912 234.747 46.288 235.083 45.16H237.795C237.291 47.752 235.131 49.312 232.035 49.312ZM231.963 39.184C230.235 39.184 229.179 40.12 228.891 41.896H234.843C234.843 40.264 233.715 39.184 231.963 39.184ZM243.018 49H240.09V37.144H242.802L243.042 38.68C243.786 37.48 245.226 36.784 246.834 36.784C249.81 36.784 251.346 38.632 251.346 41.704V49H248.418V42.4C248.418 40.408 247.434 39.448 245.922 39.448C244.122 39.448 243.018 40.696 243.018 42.616V49ZM258.255 49H255.327V39.592H253.047V37.144H255.327V33.448H258.255V37.144H260.559V39.592H258.255V49ZM267.566 49.312C264.038 49.312 261.566 46.744 261.566 43.072C261.566 39.352 263.99 36.784 267.47 36.784C271.022 36.784 273.278 39.16 273.278 42.856V43.744L264.35 43.768C264.566 45.856 265.67 46.912 267.614 46.912C269.222 46.912 270.278 46.288 270.614 45.16H273.326C272.822 47.752 270.662 49.312 267.566 49.312ZM267.494 39.184C265.766 39.184 264.71 40.12 264.422 41.896H270.374C270.374 40.264 269.246 39.184 267.494 39.184ZM283.061 37.096V39.808H281.981C279.869 39.808 278.549 40.936 278.549 43.24V49H275.621V37.168H278.381L278.549 38.896C279.053 37.72 280.181 36.928 281.765 36.928C282.173 36.928 282.581 36.976 283.061 37.096Z" fill="white"/>
<rect x="856" y="246" width="303" height="41" rx="20.5" fill="white"/>
<rect x="856" y="246" width="303" height="41" rx="20.5" fill="url(#paint2_linear_138_1891)"/>
<path d="M965.176 267.064C965.176 270.68 962.792 273.192 959.352 273.192C955.928 273.192 953.576 270.696 953.576 267.08C953.576 263.464 955.944 260.952 959.368 260.952C962.808 260.952 965.176 263.448 965.176 267.064ZM962.44 267.064C962.44 264.808 961.288 263.448 959.384 263.448C957.464 263.448 956.312 264.808 956.312 267.064C956.312 269.336 957.464 270.696 959.384 270.696C961.288 270.696 962.44 269.304 962.44 267.064ZM966.678 276.84V265H968.998L969.126 265.976C969.574 265.24 970.582 264.744 971.718 264.744C973.942 264.744 975.494 266.296 975.494 268.872C975.494 271.4 974.118 273.224 971.734 273.224C970.63 273.224 969.606 272.808 969.142 272.2V276.84H966.678ZM969.158 269C969.158 270.2 969.958 271 971.11 271C972.278 271 973.014 270.184 973.014 269C973.014 267.816 972.278 267 971.11 267C969.958 267 969.158 267.8 969.158 269ZM980.066 273H977.602V267.048H976.082V265H977.602V262.52H980.066V265H981.586V267.048H980.066V273ZM983.91 263.752C983.126 263.752 982.502 263.128 982.502 262.344C982.502 261.56 983.126 260.952 983.91 260.952C984.678 260.952 985.302 261.56 985.302 262.344C985.302 263.128 984.678 263.752 983.91 263.752ZM982.694 273V265H985.158V273H982.694ZM989.47 273H987.006V265H989.31L989.47 265.832C989.87 265.272 990.654 264.744 991.806 264.744C993.006 264.744 993.774 265.304 994.238 266.152C994.654 265.304 995.598 264.744 996.75 264.744C998.814 264.744 999.838 265.944 999.838 267.768V273H997.374V268.456C997.374 267.448 996.846 266.968 996.062 266.968C995.358 266.968 994.654 267.352 994.654 268.712V273H992.19V268.456C992.19 267.464 991.678 266.984 990.894 266.984C990.19 266.984 989.47 267.368 989.47 268.712V273ZM1002.82 263.752C1002.03 263.752 1001.41 263.128 1001.41 262.344C1001.41 261.56 1002.03 260.952 1002.82 260.952C1003.58 260.952 1004.21 261.56 1004.21 262.344C1004.21 263.128 1003.58 263.752 1002.82 263.752ZM1001.6 273V265H1004.06V273H1001.6ZM1012.26 273H1005.56V270.952L1009.14 267.048H1005.56V265H1012.26V267.048L1008.58 270.952H1012.26V273ZM1017.48 273.208C1015.07 273.208 1013.34 271.448 1013.34 268.984C1013.34 266.488 1015.02 264.744 1017.44 264.744C1019.95 264.744 1021.52 266.392 1021.52 269V269.624L1015.71 269.656C1015.85 270.712 1016.44 271.208 1017.53 271.208C1018.46 271.208 1019.12 270.872 1019.29 270.296H1021.55C1021.26 272.072 1019.68 273.208 1017.48 273.208ZM1017.45 266.744C1016.48 266.744 1015.93 267.176 1015.74 268.136H1019.07C1019.07 267.288 1018.44 266.744 1017.45 266.744ZM1030.07 273H1027.51V261.16H1030.07L1035.07 268.696V261.16H1037.63V273H1035.07L1030.07 265.48V273ZM1039.36 268.984C1039.36 266.456 1041.21 264.76 1043.77 264.76C1046.32 264.76 1048.17 266.456 1048.17 268.984C1048.17 271.512 1046.32 273.192 1043.77 273.192C1041.21 273.192 1039.36 271.512 1039.36 268.984ZM1041.84 268.968C1041.84 270.184 1042.62 270.984 1043.77 270.984C1044.91 270.984 1045.69 270.184 1045.69 268.968C1045.69 267.768 1044.91 266.968 1043.77 266.968C1042.62 266.968 1041.84 267.768 1041.84 268.968ZM1051 273L1048.43 265H1051.02L1051.75 267.608C1051.95 268.296 1052.12 269.08 1052.25 269.88C1052.39 269.032 1052.47 268.728 1052.83 267.608L1053.64 265H1056.17L1056.92 267.608C1057 267.88 1057.39 269.368 1057.47 269.88C1057.56 269.304 1057.95 267.896 1058.03 267.608L1058.79 265H1061.4L1058.6 273H1056.31L1055.55 270.456C1055.15 269.144 1054.94 268.2 1054.89 267.864C1054.83 268.2 1054.68 268.824 1054.17 270.504L1053.4 273H1051Z" fill="black"/>
<rect x="856.5" y="189.5" width="302" height="40" rx="20" stroke="white"/>
<rect x="856.5" y="189.5" width="302" height="40" rx="20" stroke="url(#paint3_linear_138_1891)"/>
<path d="M945.926 215H944.134V204.766H948.04C950.364 204.766 951.722 205.942 951.722 207.958C951.722 209.33 951.078 210.31 949.874 210.8L951.82 215H949.86L948.124 211.178H945.926V215ZM945.926 206.362V209.596H948.04C949.174 209.596 949.846 208.994 949.846 207.958C949.846 206.936 949.174 206.362 948.04 206.362H945.926ZM955.863 215.182C953.805 215.182 952.363 213.684 952.363 211.542C952.363 209.372 953.777 207.874 955.807 207.874C957.879 207.874 959.195 209.26 959.195 211.416V211.934L953.987 211.948C954.113 213.166 954.757 213.782 955.891 213.782C956.829 213.782 957.445 213.418 957.641 212.76H959.223C958.929 214.272 957.669 215.182 955.863 215.182ZM955.821 209.274C954.813 209.274 954.197 209.82 954.029 210.856H957.501C957.501 209.904 956.843 209.274 955.821 209.274ZM962.221 215L959.477 208.084H961.297L962.501 211.262C962.795 212.088 963.033 212.802 963.117 213.18C963.215 212.746 963.467 212.018 963.761 211.262L965.021 208.084H966.785L963.901 215H962.221ZM968.621 206.698C968.033 206.698 967.571 206.236 967.571 205.662C967.571 205.088 968.033 204.64 968.621 204.64C969.181 204.64 969.643 205.088 969.643 205.662C969.643 206.236 969.181 206.698 968.621 206.698ZM967.767 215V208.084H969.475V215H967.767ZM974.333 215.182C972.275 215.182 970.833 213.684 970.833 211.542C970.833 209.372 972.247 207.874 974.277 207.874C976.349 207.874 977.665 209.26 977.665 211.416V211.934L972.457 211.948C972.583 213.166 973.227 213.782 974.361 213.782C975.299 213.782 975.915 213.418 976.111 212.76H977.693C977.399 214.272 976.139 215.182 974.333 215.182ZM974.291 209.274C973.283 209.274 972.667 209.82 972.499 210.856H975.971C975.971 209.904 975.313 209.274 974.291 209.274ZM980.258 215L978.018 208.084H979.796L980.706 211.052C980.86 211.598 981 212.2 981.126 212.844C981.252 212.172 981.378 211.738 981.602 211.052L982.554 208.084H984.29L985.214 211.052C985.298 211.332 985.578 212.368 985.662 212.83C985.774 212.312 985.998 211.486 986.124 211.052L987.048 208.084H988.854L986.46 215H984.864L983.912 212.004C983.632 211.094 983.478 210.436 983.422 210.086C983.352 210.408 983.226 210.898 982.876 212.032L981.924 215H980.258ZM993.325 207.622C993.325 205.83 994.809 204.584 996.965 204.584C999.037 204.584 1000.35 205.732 1000.41 207.58H998.617C998.575 206.698 997.945 206.18 996.937 206.18C995.831 206.18 995.117 206.712 995.117 207.566C995.117 208.294 995.509 208.7 996.363 208.896L997.973 209.246C999.723 209.624 1000.58 210.52 1000.58 212.046C1000.58 213.95 999.093 215.182 996.839 215.182C994.655 215.182 993.227 214.02 993.185 212.186H994.977C994.991 213.054 995.691 213.572 996.839 213.572C998.029 213.572 998.785 213.054 998.785 212.2C998.785 211.514 998.435 211.108 997.595 210.926L995.971 210.562C994.235 210.184 993.325 209.19 993.325 207.622ZM1006.64 208.084H1008.34V215H1006.76L1006.64 214.076C1006.22 214.734 1005.32 215.182 1004.4 215.182C1002.8 215.182 1001.86 214.104 1001.86 212.41V208.084H1003.57V211.808C1003.57 213.124 1004.09 213.656 1005.04 213.656C1006.12 213.656 1006.64 213.026 1006.64 211.71V208.084ZM1009.72 211.388C1009.72 209.372 1011.03 207.86 1013.01 207.86C1014.04 207.86 1014.85 208.294 1015.26 209.036L1015.36 208.084H1016.94V214.65C1016.94 216.96 1015.55 218.402 1013.31 218.402C1011.33 218.402 1009.97 217.268 1009.76 215.42H1011.47C1011.58 216.316 1012.26 216.848 1013.31 216.848C1014.49 216.848 1015.25 216.106 1015.25 214.958V213.81C1014.81 214.454 1013.96 214.86 1012.96 214.86C1011 214.86 1009.72 213.39 1009.72 211.388ZM1011.44 211.346C1011.44 212.508 1012.18 213.376 1013.3 213.376C1014.48 213.376 1015.2 212.55 1015.2 211.346C1015.2 210.17 1014.49 209.358 1013.3 209.358C1012.17 209.358 1011.44 210.212 1011.44 211.346ZM1018.32 211.388C1018.32 209.372 1019.63 207.86 1021.61 207.86C1022.64 207.86 1023.45 208.294 1023.86 209.036L1023.96 208.084H1025.54V214.65C1025.54 216.96 1024.15 218.402 1021.91 218.402C1019.93 218.402 1018.57 217.268 1018.36 215.42H1020.07C1020.18 216.316 1020.86 216.848 1021.91 216.848C1023.09 216.848 1023.85 216.106 1023.85 214.958V213.81C1023.41 214.454 1022.56 214.86 1021.56 214.86C1019.6 214.86 1018.32 213.39 1018.32 211.388ZM1020.04 211.346C1020.04 212.508 1020.78 213.376 1021.9 213.376C1023.08 213.376 1023.8 212.55 1023.8 211.346C1023.8 210.17 1023.09 209.358 1021.9 209.358C1020.77 209.358 1020.04 210.212 1020.04 211.346ZM1030.4 215.182C1028.34 215.182 1026.9 213.684 1026.9 211.542C1026.9 209.372 1028.32 207.874 1030.35 207.874C1032.42 207.874 1033.73 209.26 1033.73 211.416V211.934L1028.53 211.948C1028.65 213.166 1029.3 213.782 1030.43 213.782C1031.37 213.782 1031.98 213.418 1032.18 212.76H1033.76C1033.47 214.272 1032.21 215.182 1030.4 215.182ZM1030.36 209.274C1029.35 209.274 1028.74 209.82 1028.57 210.856H1032.04C1032.04 209.904 1031.38 209.274 1030.36 209.274ZM1034.57 212.9H1036.19C1036.21 213.502 1036.65 213.88 1037.44 213.88C1038.24 213.88 1038.67 213.558 1038.67 213.054C1038.67 212.704 1038.49 212.452 1037.87 212.312L1036.63 212.018C1035.38 211.738 1034.78 211.15 1034.78 210.044C1034.78 208.686 1035.93 207.874 1037.52 207.874C1039.08 207.874 1040.13 208.77 1040.14 210.114H1038.52C1038.5 209.526 1038.11 209.148 1037.45 209.148C1036.78 209.148 1036.39 209.456 1036.39 209.974C1036.39 210.366 1036.7 210.618 1037.28 210.758L1038.53 211.052C1039.69 211.318 1040.28 211.85 1040.28 212.914C1040.28 214.314 1039.09 215.182 1037.38 215.182C1035.66 215.182 1034.57 214.258 1034.57 212.9ZM1043.93 215H1042.23V209.512H1040.9V208.084H1042.23V205.928H1043.93V208.084H1045.28V209.512H1043.93V215ZM1047.19 206.698C1046.61 206.698 1046.14 206.236 1046.14 205.662C1046.14 205.088 1046.61 204.64 1047.19 204.64C1047.75 204.64 1048.22 205.088 1048.22 205.662C1048.22 206.236 1047.75 206.698 1047.19 206.698ZM1046.34 215V208.084H1048.05V215H1046.34ZM1049.41 211.528C1049.41 209.372 1050.96 207.888 1053.1 207.888C1055.24 207.888 1056.8 209.372 1056.8 211.528C1056.8 213.684 1055.24 215.168 1053.1 215.168C1050.96 215.168 1049.41 213.684 1049.41 211.528ZM1051.11 211.528C1051.11 212.788 1051.93 213.642 1053.1 213.642C1054.28 213.642 1055.09 212.788 1055.09 211.528C1055.09 210.268 1054.28 209.414 1053.1 209.414C1051.93 209.414 1051.11 210.268 1051.11 211.528ZM1059.86 215H1058.15V208.084H1059.73L1059.87 208.98C1060.31 208.28 1061.15 207.874 1062.09 207.874C1063.82 207.874 1064.72 208.952 1064.72 210.744V215H1063.01V211.15C1063.01 209.988 1062.44 209.428 1061.55 209.428C1060.5 209.428 1059.86 210.156 1059.86 211.276V215ZM1065.78 212.9H1067.41C1067.42 213.502 1067.87 213.88 1068.65 213.88C1069.45 213.88 1069.88 213.558 1069.88 213.054C1069.88 212.704 1069.7 212.452 1069.09 212.312L1067.84 212.018C1066.59 211.738 1065.99 211.15 1065.99 210.044C1065.99 208.686 1067.14 207.874 1068.74 207.874C1070.29 207.874 1071.34 208.77 1071.35 210.114H1069.73C1069.72 209.526 1069.32 209.148 1068.67 209.148C1067.99 209.148 1067.6 209.456 1067.6 209.974C1067.6 210.366 1067.91 210.618 1068.5 210.758L1069.74 211.052C1070.91 211.318 1071.49 211.85 1071.49 212.914C1071.49 214.314 1070.3 215.182 1068.6 215.182C1066.87 215.182 1065.78 214.258 1065.78 212.9Z" fill="white"/>
<rect x="432" y="259" width="353" height="6" rx="3" fill="#ADADAD"/>
<path d="M432 262C432 260.343 433.343 259 435 259H594V265H435C433.343 265 432 263.657 432 262V262Z" fill="url(#paint4_linear_138_1891)"/>
<g filter="url(#filter0_d_138_1891)">
<circle cx="598.5" cy="261.5" r="6.5" fill="white"/>
</g>
<path d="M433.757 243H432.961V235.09H435.911C437.513 235.09 438.485 235.974 438.485 237.377C438.485 238.515 437.888 239.31 436.872 239.586L438.562 243H437.678L436.066 239.719H433.757V243ZM433.757 235.808V239.001H435.933C437.027 239.001 437.667 238.404 437.667 237.399C437.667 236.371 436.994 235.808 435.911 235.808H433.757ZM440.238 236.184C439.928 236.184 439.674 235.93 439.674 235.62C439.674 235.311 439.928 235.046 440.238 235.046C440.547 235.046 440.812 235.311 440.812 235.62C440.812 235.93 440.547 236.184 440.238 236.184ZM439.862 243V237.653H440.624V243H439.862ZM441.761 241.498H442.49C442.49 242.116 442.954 242.503 443.705 242.503C444.534 242.503 445.02 242.149 445.02 241.575C445.02 241.133 444.799 240.879 444.169 240.724L443.252 240.492C442.324 240.26 441.871 239.774 441.871 239.045C441.871 238.106 442.656 237.509 443.805 237.509C444.932 237.509 445.661 238.128 445.694 239.122H444.954C444.932 238.504 444.501 238.139 443.783 238.139C443.031 238.139 442.612 238.459 442.612 239.034C442.612 239.443 442.899 239.73 443.484 239.874L444.401 240.106C445.329 240.338 445.749 240.768 445.749 241.542C445.749 242.503 444.932 243.133 443.716 243.133C442.512 243.133 441.761 242.492 441.761 241.498ZM447.8 243H447.037V234.946H447.8V240.415L450.451 237.653H451.412L449.357 239.785L451.423 243H450.539L448.838 240.326L447.8 241.398V243ZM454.735 235.819V235.09H460.402V235.819H457.961V243H457.165V235.819H454.735ZM460.136 240.326C460.136 238.691 461.285 237.509 462.854 237.509C464.422 237.509 465.571 238.691 465.571 240.326C465.571 241.95 464.422 243.133 462.854 243.133C461.285 243.133 460.136 241.95 460.136 240.326ZM460.909 240.315C460.909 241.575 461.705 242.448 462.854 242.448C463.992 242.448 464.798 241.575 464.798 240.315C464.798 239.078 463.992 238.194 462.854 238.194C461.705 238.194 460.909 239.078 460.909 240.315ZM467.586 243H466.824V234.946H467.586V243ZM471.45 243.133C469.881 243.133 468.832 242.006 468.832 240.326C468.832 238.658 469.87 237.509 471.395 237.509C472.842 237.509 473.825 238.537 473.825 240.05V240.426H469.572C469.627 241.73 470.312 242.481 471.461 242.481C472.334 242.481 472.897 242.105 473.096 241.398H473.825C473.538 242.525 472.709 243.133 471.45 243.133ZM471.395 238.161C470.389 238.161 469.726 238.824 469.594 239.874H473.063C473.063 238.846 472.4 238.161 471.395 238.161ZM477.839 237.587V238.272H477.419C476.436 238.272 475.806 238.934 475.806 239.951V243H475.044V237.653H475.762L475.817 238.482C476.027 237.907 476.591 237.531 477.342 237.531C477.508 237.531 477.651 237.542 477.839 237.587ZM480.172 243.133C479.034 243.133 478.36 242.492 478.36 241.553C478.36 240.57 479.112 239.951 480.36 239.851L482.128 239.708V239.531C482.128 238.482 481.498 238.15 480.714 238.15C479.786 238.15 479.233 238.57 479.233 239.288H478.537C478.537 238.205 479.421 237.509 480.736 237.509C481.973 237.509 482.879 238.128 482.879 239.542V243H482.238L482.139 242.061C481.807 242.735 481.078 243.133 480.172 243.133ZM480.349 242.514C481.476 242.514 482.128 241.73 482.128 240.57V240.282L480.548 240.404C479.542 240.492 479.134 240.934 479.134 241.531C479.134 242.182 479.62 242.514 480.349 242.514ZM485.171 243H484.409V237.653H485.071L485.182 238.581C485.535 237.896 486.242 237.509 487.016 237.509C488.485 237.509 489.093 238.382 489.093 239.73V243H488.33V239.896C488.33 238.647 487.767 238.205 486.883 238.205C485.789 238.205 485.171 239.001 485.171 240.205V243ZM490.236 240.338C490.236 238.658 491.264 237.509 492.822 237.509C494.059 237.509 494.965 238.227 495.175 239.332H494.412C494.214 238.592 493.573 238.183 492.833 238.183C491.75 238.183 490.988 239.012 490.988 240.326C490.988 241.597 491.695 242.448 492.777 242.448C493.573 242.448 494.214 242.006 494.423 241.321H495.197C494.943 242.414 493.993 243.133 492.777 243.133C491.264 243.133 490.236 242.017 490.236 240.338ZM498.594 243.133C497.026 243.133 495.976 242.006 495.976 240.326C495.976 238.658 497.014 237.509 498.539 237.509C499.986 237.509 500.97 238.537 500.97 240.05V240.426H496.716C496.771 241.73 497.456 242.481 498.605 242.481C499.478 242.481 500.042 242.105 500.24 241.398H500.97C500.682 242.525 499.854 243.133 498.594 243.133ZM498.539 238.161C497.534 238.161 496.871 238.824 496.738 239.874H500.207C500.207 238.846 499.544 238.161 498.539 238.161Z" fill="#ADADAD"/>
<line x1="432.5" y1="270" x2="432.5" y2="279" stroke="#ADADAD"/>
<line x1="598.5" y1="270" x2="598.5" y2="279" stroke="#ADADAD"/>
<line x1="784.5" y1="270" x2="784.5" y2="279" stroke="#ADADAD"/>
<path d="M423.757 286.09V293.271H427.391V294H422.961V286.09H423.757ZM427.933 291.326C427.933 289.691 429.082 288.509 430.651 288.509C432.219 288.509 433.368 289.691 433.368 291.326C433.368 292.95 432.219 294.133 430.651 294.133C429.082 294.133 427.933 292.95 427.933 291.326ZM428.706 291.315C428.706 292.575 429.502 293.448 430.651 293.448C431.788 293.448 432.595 292.575 432.595 291.315C432.595 290.078 431.788 289.194 430.651 289.194C429.502 289.194 428.706 290.078 428.706 291.315ZM435.477 294L433.709 288.653H434.494L435.543 291.879C435.665 292.232 435.764 292.597 435.875 293.028C435.963 292.597 436.14 292.056 436.195 291.879L437.256 288.653H438.04L439.09 291.879C439.189 292.166 439.322 292.63 439.421 293.028C439.531 292.586 439.554 292.453 439.741 291.879L440.802 288.653H441.597L439.786 294H439.045L437.941 290.642C437.808 290.244 437.72 289.912 437.653 289.592C437.576 289.879 437.488 290.2 437.344 290.642L436.239 294H435.477Z" fill="#ADADAD"/>
<path d="M580.746 294H579.961V286.09H580.746L583.629 293.061L586.512 286.09H587.308V294H586.523V290.244C586.523 288.863 586.546 288.255 586.59 287.714L584.016 294H583.253L580.679 287.747C580.723 288.045 580.746 288.918 580.746 290.122V294ZM591.306 294.133C589.737 294.133 588.687 293.006 588.687 291.326C588.687 289.658 589.726 288.509 591.25 288.509C592.698 288.509 593.681 289.537 593.681 291.05V291.426H589.427C589.483 292.73 590.168 293.481 591.317 293.481C592.189 293.481 592.753 293.105 592.952 292.398H593.681C593.394 293.525 592.565 294.133 591.306 294.133ZM591.25 289.161C590.245 289.161 589.582 289.824 589.45 290.874H592.919C592.919 289.846 592.256 289.161 591.25 289.161ZM596.999 294.133C595.441 294.133 594.524 292.939 594.524 291.338C594.524 289.725 595.441 288.509 597.032 288.509C597.916 288.509 598.623 288.896 598.998 289.669V285.946H599.761V294H599.098L599.02 292.906C598.645 293.735 597.893 294.133 596.999 294.133ZM597.131 293.437C598.302 293.437 598.987 292.553 598.987 291.315C598.987 290.089 598.302 289.194 597.131 289.194C595.971 289.194 595.297 290.089 595.297 291.315C595.297 292.553 595.971 293.437 597.131 293.437ZM601.727 287.184C601.418 287.184 601.163 286.93 601.163 286.62C601.163 286.311 601.418 286.046 601.727 286.046C602.036 286.046 602.301 286.311 602.301 286.62C602.301 286.93 602.036 287.184 601.727 287.184ZM601.351 294V288.653H602.114V294H601.351ZM607.125 288.653H607.887V294H607.224L607.125 293.094C606.827 293.713 606.086 294.133 605.247 294.133C603.987 294.133 603.302 293.271 603.302 291.967V288.642H604.076V291.724C604.076 292.995 604.639 293.448 605.49 293.448C606.517 293.448 607.125 292.763 607.125 291.492V288.653ZM610.237 294H609.475V288.653H610.138L610.226 289.415C610.491 288.852 611.088 288.509 611.839 288.509C612.679 288.509 613.309 288.951 613.563 289.647C613.806 288.951 614.458 288.509 615.319 288.509C616.479 288.509 617.242 289.261 617.242 290.498V294H616.501V290.653C616.501 289.736 615.993 289.194 615.176 289.194C614.281 289.194 613.751 289.868 613.751 290.697V294H612.999V290.642C612.999 289.736 612.48 289.205 611.674 289.205C610.779 289.205 610.237 289.868 610.237 290.686V294Z" fill="#ADADAD"/>
<path d="M773.757 294H772.961V286.09H773.757V289.614H778.032V286.09H778.816V294H778.032V290.354H773.757V294ZM780.96 287.184C780.651 287.184 780.397 286.93 780.397 286.62C780.397 286.311 780.651 286.046 780.96 286.046C781.27 286.046 781.535 286.311 781.535 286.62C781.535 286.93 781.27 287.184 780.96 287.184ZM780.585 294V288.653H781.347V294H780.585ZM782.572 291.172C782.572 289.714 783.511 288.509 785.08 288.509C786.008 288.509 786.715 288.94 787.058 289.725L787.135 288.653H787.798V293.834C787.798 295.425 786.781 296.464 785.213 296.464C783.843 296.464 782.882 295.69 782.672 294.398H783.434C783.6 295.259 784.263 295.768 785.224 295.768C786.317 295.768 787.047 295.027 787.047 293.912V292.641C786.682 293.392 785.942 293.834 785.025 293.834C783.5 293.834 782.572 292.63 782.572 291.172ZM783.335 291.161C783.335 292.254 784.008 293.149 785.135 293.149C786.295 293.149 786.98 292.31 786.98 291.161C786.98 290.023 786.317 289.183 785.146 289.183C783.997 289.183 783.335 290.078 783.335 291.161ZM790.151 293.989H789.388V285.946H790.151V289.581C790.493 288.94 791.145 288.509 792.04 288.509C793.443 288.509 794.073 289.382 794.073 290.73V294H793.31V290.896C793.31 289.647 792.725 289.205 791.896 289.205C790.747 289.205 790.151 290.056 790.151 291.083V293.989Z" fill="#ADADAD"/>
<defs>
<filter id="filter0_d_138_1891" x="585" y="248" width="27" height="27" filterUnits="userSpaceOnUse" color-interpolation-filters="sRGB">
<feFlood flood-opacity="0" result="BackgroundImageFix"/>
<feColorMatrix in="SourceAlpha" type="matrix" values="0 0 0 0 0 0 0 0 0 0 0 0 0 0 0 0 0 0 127 0" result="hardAlpha"/>
<feMorphology radius="1" operator="dilate" in="SourceAlpha" result="effect1_dropShadow_138_1891"/>
<feOffset/>
<feGaussianBlur stdDeviation="3"/>
<feComposite in2="hardAlpha" operator="out"/>
<feColorMatrix type="matrix" values="0 0 0 0 1 0 0 0 0 1 0 0 0 0 1 0 0 0 0.5 0"/>
<feBlend mode="normal" in2="BackgroundImageFix" result="effect1_dropShadow_138_1891"/>
<feBlend mode="normal" in="SourceGraphic" in2="effect1_dropShadow_138_1891" result="shape"/>
</filter>
<linearGradient id="paint0_linear_138_1891" x1="118.176" y1="170.345" x2="260.495" y2="170.345" gradientUnits="userSpaceOnUse">
<stop stop-color="#3CFDF6"/>
<stop offset="1" stop-color="#FA51E9"/>
</linearGradient>
<linearGradient id="paint1_linear_138_1891" x1="1148.46" y1="38.1429" x2="1110.36" y2="38.9961" gradientUnits="userSpaceOnUse">
<stop offset="0.00527738" stop-color="#3CFDF6"/>
<stop offset="1" stop-color="#FF89F3"/>
</linearGradient>
<linearGradient id="paint2_linear_138_1891" x1="1116.34" y1="269.429" x2="878.478" y2="288.194" gradientUnits="userSpaceOnUse">
<stop offset="0.00527738" stop-color="#3CFDF6"/>
<stop offset="1" stop-color="#FF89F3"/>
</linearGradient>
<linearGradient id="paint3_linear_138_1891" x1="856" y1="209.5" x2="1159" y2="209.5" gradientUnits="userSpaceOnUse">
<stop stop-color="#3CFDF6"/>
<stop offset="1" stop-color="#FA51E9"/>
</linearGradient>
<linearGradient id="paint4_linear_138_1891" x1="562.723" y1="265" x2="465.972" y2="220.052" gradientUnits="userSpaceOnUse">
<stop stop-color="#3CFDF6"/>
<stop offset="1" stop-color="#FA51E9"/>
</linearGradient>
<clipPath id="clip0_138_1891">
<rect x="1107" y="25" width="48.2549" height="23" rx="11.5" fill="white"/>
</clipPath>
</defs>
</svg>
