<svg width="906" height="41" viewBox="0 0 906 41" fill="none" xmlns="http://www.w3.org/2000/svg">
<rect x="0.5" y="0.5" width="905" height="40" rx="20" fill="#13132A"/>
<rect x="0.5" y="0.5" width="905" height="40" rx="20" stroke="#565656"/>
<path d="M24.5 24.5C22.6833 24.5 21.146 23.8707 19.888 22.612C18.63 21.3533 18.0007 19.816 18 18C17.9993 16.184 18.6287 14.6467 19.888 13.388C21.1473 12.1293 22.6847 11.5 24.5 11.5C26.3153 11.5 27.853 12.1293 29.113 13.388C30.373 14.6467 31.002 16.184 31 18C31 18.7333 30.8833 19.425 30.65 20.075C30.4167 20.725 30.1 21.3 29.7 21.8L35.3 27.4C35.4833 27.5833 35.575 27.8167 35.575 28.1C35.575 28.3833 35.4833 28.6167 35.3 28.8C35.1167 28.9833 34.8833 29.075 34.6 29.075C34.3167 29.075 34.0833 28.9833 33.9 28.8L28.3 23.2C27.8 23.6 27.225 23.9167 26.575 24.15C25.925 24.3833 25.2333 24.5 24.5 24.5ZM24.5 22.5C25.75 22.5 26.8127 22.0627 27.688 21.188C28.5633 20.3133 29.0007 19.2507 29 18C28.9993 16.7493 28.562 15.687 27.688 14.813C26.814 13.939 25.7513 13.5013 24.5 13.5C23.2487 13.4987 22.1863 13.9363 21.313 14.813C20.4397 15.6897 20.002 16.752 20 18C19.998 19.248 20.4357 20.3107 21.313 21.188C22.1903 22.0653 23.2527 22.5027 24.5 22.5Z" fill="#ADADAD"/>
<path d="M52.56 25.16H54.36C54.36 26.16 55.12 26.76 56.36 26.76C57.68 26.76 58.44 26.22 58.44 25.32C58.44 24.66 58.12 24.26 57.1 24L55.38 23.6C53.64 23.18 52.82 22.32 52.82 20.88C52.82 19.08 54.34 17.94 56.5 17.94C58.64 17.94 60.04 19.14 60.08 21H58.28C58.24 20.02 57.58 19.4 56.44 19.4C55.26 19.4 54.6 19.92 54.6 20.82C54.6 21.48 55.08 21.92 56.04 22.16L57.76 22.58C59.42 22.98 60.24 23.74 60.24 25.2C60.24 27.06 58.64 28.24 56.32 28.24C54.02 28.24 52.56 27.02 52.56 25.16ZM66.5448 28.24C63.6648 28.24 61.6848 26.16 61.6848 23.12C61.6848 20.06 63.6248 17.94 66.4648 17.94C69.2448 17.94 71.0648 19.86 71.0648 22.76V23.46L63.5048 23.48C63.6448 25.54 64.7248 26.68 66.5848 26.68C68.0448 26.68 69.0048 26.08 69.3248 24.96H71.0848C70.6048 27.06 68.9648 28.24 66.5448 28.24ZM66.4648 19.52C64.8248 19.52 63.7848 20.5 63.5448 22.22H69.1848C69.1848 20.6 68.1248 19.52 66.4648 19.52ZM75.927 28.24C73.827 28.24 72.587 27.06 72.587 25.28C72.587 23.48 73.927 22.36 76.227 22.18L79.307 21.94V21.66C79.307 20.02 78.327 19.44 77.007 19.44C75.427 19.44 74.527 20.14 74.527 21.32H72.887C72.887 19.28 74.567 17.94 77.087 17.94C79.507 17.94 81.147 19.22 81.147 21.86V28H79.547L79.347 26.42C78.847 27.54 77.507 28.24 75.927 28.24ZM76.467 26.78C78.247 26.78 79.327 25.62 79.327 23.78V23.26L76.827 23.46C75.167 23.62 74.487 24.26 74.487 25.22C74.487 26.26 75.247 26.78 76.467 26.78ZM89.3506 18.14V19.86H88.5106C86.7306 19.86 85.6306 20.94 85.6306 22.82V28H83.7506V18.24H85.5106L85.6306 19.72C86.0306 18.7 87.0106 18.02 88.3506 18.02C88.6906 18.02 88.9706 18.06 89.3506 18.14ZM90.1223 23.12C90.1223 20.06 92.0623 17.94 94.9223 17.94C97.3823 17.94 99.1023 19.34 99.4423 21.52H97.5623C97.2423 20.28 96.2423 19.62 94.9823 19.62C93.2023 19.62 91.9823 20.98 91.9823 23.1C91.9823 25.2 93.1223 26.56 94.9023 26.56C96.2423 26.56 97.2423 25.86 97.5823 24.7H99.4623C99.0823 26.82 97.2623 28.24 94.9023 28.24C92.0223 28.24 90.1223 26.2 90.1223 23.12ZM103.326 27.98H101.446V13.28H103.326V19.72C103.946 18.66 105.126 17.94 106.646 17.94C109.146 17.94 110.346 19.52 110.346 22.02V28H108.466V22.44C108.466 20.46 107.526 19.66 106.126 19.66C104.306 19.66 103.326 20.98 103.326 22.66V27.98Z" fill="#ADADAD"/>
</svg>
