<svg width="1207" height="304" viewBox="0 0 1207 304" fill="none" xmlns="http://www.w3.org/2000/svg">
<path d="M28.75 43.25C28.75 43.25 28.75 40.4125 28.75 39.5C28.75 38.7125 28.9375 37.05 28.125 36.375C29.8625 36.2125 31.225 35.65 32.5 34.5C33.775 33.35 34.375 31.6125 34.375 28.875C34.375 27 34.0625 25.75 33.125 24.5C33.4875 23.525 33.55 22 33.125 20.75C31.175 20.75 29.4125 22.0875 28.75 22.625C28.2625 22.5 27.0875 22 25 22C22.9125 22 21.7375 22.5 21.25 22.625C20.5875 22.0875 18.825 20.75 16.875 20.75C16.45 22 16.5125 23.525 16.875 24.5C15.9375 25.75 15.625 27 15.625 28.875C15.625 31.6125 16.225 33.35 17.5 34.5C18.775 35.65 20.1375 36.2125 21.875 36.375C21.0625 37.05 21.25 38.7125 21.25 39.5C21.25 40.4125 21.25 43.25 21.25 43.25" stroke="#E6E6E6" stroke-width="2" stroke-linecap="round" stroke-linejoin="round"/>
<path d="M21.25 40.75C19.4875 40.75 17.7 40.05 16.6375 39.2625C15.5875 38.475 15.275 37.1875 13.75 36.375" stroke="#E6E6E6" stroke-width="2" stroke-linecap="round" stroke-linejoin="round"/>
<g clip-path="url(#clip0_143_3904)">
<mask id="mask0_143_3904" style="mask-type:luminance" maskUnits="userSpaceOnUse" x="69" y="21" width="22" height="22">
<path d="M69 21H91V43H69V21Z" fill="white"/>
</mask>
<g mask="url(#mask0_143_3904)">
<path d="M86.325 22.0308H89.6989L82.3289 30.4756L91 41.969H84.2114L78.8906 34.9998L72.8091 41.969H69.4321L77.3144 32.9333L69 22.0323H75.9614L80.7637 28.4013L86.325 22.0308ZM85.1386 39.945H87.0086L74.94 23.9495H72.9349L85.1386 39.945Z" fill="#E6E6E6"/>
</g>
</g>
<path d="M138.754 22C139.078 22 139.484 22.085 139.81 22.165C140.948 22.44 142.296 22.7813 143.254 23.5C144.145 24.1688 144.838 25.335 145.373 26.52C146.485 28.9888 147.259 32.28 147.526 34.7825C147.654 35.97 147.685 37.165 147.456 37.9688C147.344 38.3638 147.1 38.6613 146.929 38.8438C146.406 39.3975 145.734 39.8113 145.069 40.1875L144.739 40.3738C144.521 40.4947 144.303 40.613 144.083 40.7288L143.43 41.0663L142.534 41.5125L141.813 41.8675C141.549 41.9997 141.246 42.0342 140.959 41.965C140.672 41.8957 140.419 41.7271 140.245 41.4891C140.07 41.251 139.985 40.9589 140.006 40.6644C140.026 40.3699 140.15 40.092 140.355 39.88L139.813 38.795C138.253 39.2701 136.63 39.5078 135 39.5C133.288 39.5 131.654 39.25 130.188 38.795L129.646 39.8775C129.852 40.0891 129.977 40.367 129.998 40.6617C130.019 40.9565 129.934 41.2491 129.76 41.4876C129.586 41.7261 129.332 41.8951 129.045 41.9647C128.758 42.0342 128.455 41.9998 128.191 41.8675L127.511 41.53C126.756 41.1575 126.001 40.785 125.266 40.3738C124.499 39.945 123.685 39.4888 123.076 38.8425C122.833 38.5969 122.653 38.2969 122.549 37.9675C122.319 37.165 122.351 35.9713 122.478 34.7825C122.745 32.28 123.519 28.9888 124.633 26.52C125.166 25.335 125.859 24.1688 126.75 23.5C127.708 22.7813 129.056 22.44 130.194 22.165C130.52 22.085 130.925 22 131.25 22C131.43 21.9998 131.607 22.0385 131.771 22.1132C131.934 22.188 132.08 22.2972 132.197 22.4333C132.315 22.5693 132.402 22.7292 132.452 22.9018C132.502 23.0745 132.514 23.2559 132.488 23.4338C133.32 23.3122 134.159 23.2508 135 23.25C135.864 23.25 136.708 23.3125 137.518 23.435C137.491 23.2571 137.503 23.0755 137.553 22.9027C137.603 22.7299 137.69 22.5699 137.807 22.4337C137.925 22.2974 138.07 22.1882 138.234 22.1133C138.397 22.0385 138.574 21.9998 138.754 22ZM140.446 24.9538C140.259 24.8938 140.214 24.92 140.146 25.0325L140.069 25.1725C139.867 25.5188 139.56 25.7921 139.193 25.9529C138.825 26.1138 138.417 26.1539 138.025 26.0675C137.031 25.854 136.017 25.7476 135 25.75C133.935 25.75 132.916 25.8625 131.975 26.0675C131.583 26.1539 131.175 26.1138 130.807 25.9529C130.44 25.7921 130.133 25.5188 129.931 25.1725L129.854 25.0338C129.788 24.9213 129.743 24.895 129.556 24.9538C129.111 25.095 128.634 25.2463 128.25 25.5C127.891 25.7688 127.413 26.4375 126.911 27.5488C125.954 29.67 125.204 32.8038 124.964 35.0488C124.914 35.5238 124.886 35.9288 124.881 36.2638V36.6313C124.887 36.8538 124.902 37.0296 124.925 37.1588C125.243 37.4688 125.635 37.7125 126.029 37.9363L126.881 38.4075L127.439 38.7013L127.894 37.7913C127.673 37.586 127.535 37.3081 127.503 37.0087C127.471 36.7093 127.548 36.4084 127.721 36.1615C127.893 35.9146 128.149 35.7381 128.441 35.6646C128.733 35.591 129.041 35.6254 129.31 35.7613C130.83 36.525 132.808 37 135 37C137.193 37 139.17 36.5225 140.69 35.7625C140.947 35.6336 141.241 35.5975 141.522 35.66C141.803 35.7226 142.053 35.8801 142.231 36.106C142.41 36.3319 142.504 36.6123 142.5 36.9C142.495 37.1876 142.392 37.4649 142.206 37.685L142.106 37.7913L142.561 38.7038C142.934 38.5096 143.308 38.3083 143.683 38.1C144.17 37.83 144.683 37.5463 145.079 37.1588C145.101 37.0296 145.116 36.8538 145.123 36.6313V36.2638C145.113 35.8573 145.085 35.4515 145.04 35.0475C144.8 32.8038 144.05 29.67 143.093 27.5475C142.593 26.4375 142.113 25.7688 141.755 25.5C141.37 25.2463 140.893 25.095 140.446 24.9538ZM130.938 30.125C131.518 30.125 132.074 30.3555 132.484 30.7657C132.895 31.1759 133.125 31.7323 133.125 32.3125C133.125 32.8927 132.895 33.4491 132.484 33.8593C132.074 34.2695 131.518 34.5 130.938 34.5C130.357 34.5 129.801 34.2695 129.391 33.8593C128.98 33.4491 128.75 32.8927 128.75 32.3125C128.75 31.7323 128.98 31.1759 129.391 30.7657C129.801 30.3555 130.357 30.125 130.938 30.125ZM139.063 30.125C139.643 30.125 140.199 30.3555 140.609 30.7657C141.02 31.1759 141.25 31.7323 141.25 32.3125C141.25 32.8927 141.02 33.4491 140.609 33.8593C140.199 34.2695 139.643 34.5 139.063 34.5C138.482 34.5 137.926 34.2695 137.516 33.8593C137.105 33.4491 136.875 32.8927 136.875 32.3125C136.875 31.7323 137.105 31.1759 137.516 30.7657C137.926 30.3555 138.482 30.125 139.063 30.125Z" fill="#E6E6E6"/>
<path d="M6 236.75L1204 236.75" stroke="#ADADAD" stroke-width="0.5"/>
<path d="M618.592 36H616.198L620.95 22.842H623.308L628.06 36H625.63L624.568 32.958H619.654L618.592 36ZM621.832 26.766L620.338 31.014H623.902L622.39 26.766C622.282 26.424 622.156 26.028 622.12 25.758C622.066 26.01 621.958 26.406 621.832 26.766ZM629.386 40.122V27.108H631.42L631.564 28.458C632.104 27.432 633.274 26.838 634.624 26.838C637.126 26.838 638.782 28.656 638.782 31.446C638.782 34.218 637.27 36.234 634.624 36.234C633.292 36.234 632.14 35.712 631.582 34.812V40.122H629.386ZM631.6 31.554C631.6 33.156 632.59 34.254 634.102 34.254C635.65 34.254 636.568 33.138 636.568 31.554C636.568 29.97 635.65 28.836 634.102 28.836C632.59 28.836 631.6 29.952 631.6 31.554ZM640.53 40.122V27.108H642.564L642.708 28.458C643.248 27.432 644.418 26.838 645.768 26.838C648.27 26.838 649.926 28.656 649.926 31.446C649.926 34.218 648.414 36.234 645.768 36.234C644.436 36.234 643.284 35.712 642.726 34.812V40.122H640.53ZM642.744 31.554C642.744 33.156 643.734 34.254 645.246 34.254C646.794 34.254 647.712 33.138 647.712 31.554C647.712 29.97 646.794 28.836 645.246 28.836C643.734 28.836 642.744 29.952 642.744 31.554Z" fill="white"/>
<path d="M16.56 284.145C16.5975 283.897 16.68 283.68 16.785 283.492C16.89 283.305 17.04 283.148 17.2275 283.028C17.4075 282.915 17.6325 282.863 17.91 282.855C18.0825 282.863 18.24 282.893 18.3825 282.953C18.5325 283.02 18.6675 283.11 18.7725 283.222C18.8775 283.335 18.96 283.47 19.0275 283.62C19.095 283.77 19.125 283.935 19.1325 284.1H20.475C20.46 283.747 20.3925 283.425 20.265 283.133C20.1375 282.84 19.965 282.585 19.74 282.375C19.515 282.165 19.245 282 18.93 281.88C18.615 281.76 18.27 281.707 17.8875 281.707C17.4 281.707 16.9725 281.79 16.6125 281.962C16.2525 282.135 15.9525 282.36 15.7125 282.653C15.4725 282.945 15.2925 283.282 15.18 283.672C15.0675 284.062 15 284.467 15 284.903V285.105C15 285.54 15.06 285.945 15.1725 286.335C15.285 286.725 15.465 287.062 15.705 287.347C15.945 287.632 16.245 287.865 16.605 288.03C16.965 288.195 17.3925 288.285 17.88 288.285C18.2325 288.285 18.5625 288.225 18.87 288.112C19.1775 288 19.4475 287.843 19.68 287.64C19.9125 287.438 20.1 287.205 20.235 286.935C20.37 286.665 20.4525 286.38 20.46 286.073H19.1175C19.11 286.23 19.0725 286.373 19.005 286.507C18.9375 286.642 18.8475 286.755 18.735 286.852C18.6225 286.95 18.495 287.025 18.345 287.078C18.2025 287.13 18.0525 287.145 17.895 287.153C17.625 287.145 17.4 287.093 17.2275 286.98C17.04 286.86 16.89 286.703 16.785 286.515C16.68 286.328 16.5975 286.102 16.56 285.855C16.5225 285.608 16.5 285.353 16.5 285.105V284.903C16.5 284.64 16.5225 284.392 16.56 284.145ZM18 277.5C13.86 277.5 10.5 280.86 10.5 285C10.5 289.14 13.86 292.5 18 292.5C22.14 292.5 25.5 289.14 25.5 285C25.5 280.86 22.14 277.5 18 277.5ZM18 291C14.6925 291 12 288.307 12 285C12 281.693 14.6925 279 18 279C21.3075 279 24 281.693 24 285C24 288.307 21.3075 291 18 291Z" fill="#E6E6E6"/>
<path d="M37.612 291.982L28.828 292V290.65L33.022 287.032C35.128 285.214 35.722 284.332 35.722 282.946C35.722 281.308 34.786 280.336 33.22 280.336C31.618 280.336 30.574 281.506 30.538 283.36H28.774C28.828 280.57 30.592 278.752 33.238 278.752C35.848 278.752 37.522 280.336 37.522 282.838C37.522 284.692 36.604 286.006 34.3 288.004L31.6 290.344H37.612V291.982ZM39.2355 285.502C39.2355 281.47 41.3235 278.734 44.5995 278.734C47.8575 278.734 49.9455 281.47 49.9455 285.502C49.9455 289.552 47.9475 292.234 44.5995 292.234C41.2335 292.234 39.2355 289.552 39.2355 285.502ZM40.9815 285.502C40.9815 288.706 42.3135 290.65 44.5995 290.65C46.8855 290.65 48.1995 288.706 48.1995 285.502C48.1995 282.262 46.8855 280.318 44.5995 280.318C42.3135 280.318 40.9815 282.262 40.9815 285.502ZM60.446 291.982L51.662 292V290.65L55.856 287.032C57.962 285.214 58.556 284.332 58.556 282.946C58.556 281.308 57.62 280.336 56.054 280.336C54.452 280.336 53.408 281.506 53.372 283.36H51.608C51.662 280.57 53.426 278.752 56.072 278.752C58.682 278.752 60.356 280.336 60.356 282.838C60.356 284.692 59.438 286.006 57.134 288.004L54.434 290.344H60.446V291.982ZM66.3205 292.216C63.6565 292.216 61.9285 290.524 61.9285 287.932H63.6745C63.6745 289.606 64.7005 290.632 66.3565 290.632C68.1205 290.632 69.2545 289.462 69.2545 287.698C69.2545 286.024 68.1925 284.782 66.3745 284.782C65.2765 284.782 64.2685 285.304 63.6745 286.042L62.1805 285.664L63.7645 278.986H70.2805V280.606H65.0425L64.1785 284.062C64.8625 283.54 65.7265 283.27 66.6985 283.27C69.3445 283.27 71.0545 285.124 71.0545 287.626C71.0545 290.326 69.1285 292.216 66.3205 292.216ZM77.7551 287.986V286.474H83.2451V287.986H77.7551ZM97.6829 286.474H92.5709V292H90.8069V278.986H98.6549V280.606H92.5709V284.872H97.6829V286.474ZM102.231 292H100.539V278.752H102.231V292ZM104.146 287.59C104.146 284.872 106.09 282.964 108.736 282.964C111.364 282.964 113.308 284.872 113.308 287.59C113.308 290.308 111.364 292.216 108.736 292.216C106.09 292.216 104.146 290.308 104.146 287.59ZM105.856 287.59C105.856 289.426 107.026 290.704 108.736 290.704C110.428 290.704 111.616 289.426 111.616 287.59C111.616 285.754 110.428 284.476 108.736 284.476C107.026 284.476 105.856 285.754 105.856 287.59ZM116.667 292L113.787 283.198H115.533L116.991 287.77C117.189 288.418 117.369 289.084 117.531 289.858C117.675 289.084 117.909 288.346 118.107 287.77L119.583 283.198H121.311L122.769 287.77C122.913 288.202 123.201 289.228 123.345 289.858C123.489 289.156 123.651 288.544 123.903 287.77L125.379 283.198H127.143L124.137 292H122.535L121.005 287.284C120.717 286.402 120.537 285.718 120.447 285.232C120.357 285.664 120.195 286.24 119.871 287.302L118.341 292H116.667ZM127.976 287.986V286.474H133.466V287.986H127.976ZM142.982 286.474H137.87V292H136.106V278.986H143.954V280.606H137.87V284.872H142.982V286.474ZM146.63 281.11C146.018 281.11 145.514 280.606 145.514 279.994C145.514 279.364 146.018 278.878 146.63 278.878C147.242 278.878 147.746 279.364 147.746 279.994C147.746 280.606 147.242 281.11 146.63 281.11ZM145.802 292V283.198H147.494V292H145.802ZM156.924 278.986V290.362H162.648V292H155.16V278.986H156.924ZM166.851 292.216C164.961 292.216 163.845 291.154 163.845 289.552C163.845 287.932 165.051 286.924 167.121 286.762L169.893 286.546V286.294C169.893 284.818 169.011 284.296 167.823 284.296C166.401 284.296 165.591 284.926 165.591 285.988H164.115C164.115 284.152 165.627 282.946 167.895 282.946C170.073 282.946 171.549 284.098 171.549 286.474V292H170.109L169.929 290.578C169.479 291.586 168.273 292.216 166.851 292.216ZM167.337 290.902C168.939 290.902 169.911 289.858 169.911 288.202V287.734L167.661 287.914C166.167 288.058 165.555 288.634 165.555 289.498C165.555 290.434 166.239 290.902 167.337 290.902ZM175.422 292H173.892V278.752H175.584V284.71C176.16 283.558 177.348 282.946 178.788 282.946C181.308 282.946 182.82 284.926 182.82 287.644C182.82 290.308 181.236 292.216 178.68 292.216C177.294 292.216 176.124 291.604 175.548 290.398L175.422 292ZM175.602 287.572C175.602 289.408 176.646 290.686 178.374 290.686C180.102 290.686 181.128 289.39 181.128 287.572C181.128 285.772 180.102 284.476 178.374 284.476C176.646 284.476 175.602 285.772 175.602 287.572ZM183.965 289.444H185.585C185.585 290.344 186.269 290.884 187.385 290.884C188.573 290.884 189.257 290.398 189.257 289.588C189.257 288.994 188.969 288.634 188.051 288.4L186.503 288.04C184.937 287.662 184.199 286.888 184.199 285.592C184.199 283.972 185.567 282.946 187.511 282.946C189.437 282.946 190.697 284.026 190.733 285.7H189.113C189.077 284.818 188.483 284.26 187.457 284.26C186.395 284.26 185.801 284.728 185.801 285.538C185.801 286.132 186.233 286.528 187.097 286.744L188.645 287.122C190.139 287.482 190.877 288.166 190.877 289.48C190.877 291.154 189.437 292.216 187.349 292.216C185.279 292.216 183.965 291.118 183.965 289.444Z" fill="#ADADAD"/>
<path d="M1076.86 100H1075.57V87.112H1076.86V92.854H1083.83V87.112H1085.11V100H1083.83V94.06H1076.86V100ZM1091.64 100.216C1089.09 100.216 1087.38 98.38 1087.38 95.644C1087.38 92.926 1089.07 91.054 1091.55 91.054C1093.91 91.054 1095.51 92.728 1095.51 95.194V95.806H1088.58C1088.67 97.93 1089.79 99.154 1091.66 99.154C1093.08 99.154 1094 98.542 1094.32 97.39H1095.51C1095.04 99.226 1093.69 100.216 1091.64 100.216ZM1091.55 92.116C1089.91 92.116 1088.83 93.196 1088.62 94.906H1094.27C1094.27 93.232 1093.19 92.116 1091.55 92.116ZM1098.79 100H1097.55V86.878H1098.79V100ZM1101.43 103.798V91.288H1102.51L1102.64 93.052C1103.25 91.702 1104.48 91.054 1105.93 91.054C1108.45 91.054 1109.97 92.98 1109.97 95.608C1109.97 98.236 1108.51 100.216 1105.93 100.216C1104.46 100.216 1103.29 99.586 1102.68 98.326V103.798H1101.43ZM1102.69 95.644C1102.69 97.642 1103.81 99.1 1105.72 99.1C1107.61 99.1 1108.71 97.642 1108.71 95.644C1108.71 93.628 1107.61 92.188 1105.72 92.188C1103.81 92.188 1102.69 93.628 1102.69 95.644ZM1122.46 100.198C1118.86 100.198 1116.42 97.516 1116.42 93.556C1116.42 89.596 1118.9 86.896 1122.54 86.896C1125.31 86.896 1127.49 88.57 1128.01 91.126H1126.62C1126.08 89.272 1124.5 88.138 1122.48 88.138C1119.66 88.138 1117.77 90.298 1117.77 93.556C1117.77 96.796 1119.66 98.956 1122.48 98.956C1124.52 98.956 1126.14 97.858 1126.69 96.13H1128.08C1127.49 98.56 1125.24 100.198 1122.46 100.198ZM1133.71 100.216C1131.15 100.216 1129.44 98.38 1129.44 95.644C1129.44 92.926 1131.13 91.054 1133.62 91.054C1135.97 91.054 1137.58 92.728 1137.58 95.194V95.806H1130.65C1130.74 97.93 1131.85 99.154 1133.72 99.154C1135.15 99.154 1136.06 98.542 1136.39 97.39H1137.58C1137.11 99.226 1135.76 100.216 1133.71 100.216ZM1133.62 92.116C1131.98 92.116 1130.9 93.196 1130.68 94.906H1136.33C1136.33 93.232 1135.25 92.116 1133.62 92.116ZM1140.8 100H1139.56V91.288H1140.64L1140.82 92.8C1141.4 91.684 1142.55 91.054 1143.81 91.054C1146.2 91.054 1147.19 92.476 1147.19 94.672V100H1145.95V94.942C1145.95 92.908 1145.03 92.188 1143.59 92.188C1141.81 92.188 1140.8 93.484 1140.8 95.446V100ZM1151.67 100H1150.44V92.332H1148.7V91.288H1150.44V88.534H1151.67V91.288H1153.41V92.332H1151.67V100ZM1158.6 100.216C1156.04 100.216 1154.33 98.38 1154.33 95.644C1154.33 92.926 1156.02 91.054 1158.51 91.054C1160.86 91.054 1162.47 92.728 1162.47 95.194V95.806H1155.54C1155.63 97.93 1156.74 99.154 1158.61 99.154C1160.04 99.154 1160.95 98.542 1161.28 97.39H1162.47C1162 99.226 1160.65 100.216 1158.6 100.216ZM1158.51 92.116C1156.87 92.116 1155.79 93.196 1155.57 94.906H1161.22C1161.22 93.232 1160.14 92.116 1158.51 92.116ZM1169.01 91.18V92.296H1168.32C1166.72 92.296 1165.69 93.376 1165.69 95.032V100H1164.45V91.288H1165.62L1165.71 92.638C1166.05 91.702 1166.97 91.09 1168.2 91.09C1168.47 91.09 1168.7 91.108 1169.01 91.18Z" fill="#ADADAD"/>
<path d="M1080.82 138.198C1077.22 138.198 1074.77 135.516 1074.77 131.556C1074.77 127.596 1077.26 124.896 1080.89 124.896C1083.67 124.896 1085.84 126.57 1086.37 129.126H1084.98C1084.44 127.272 1082.86 126.138 1080.84 126.138C1078.01 126.138 1076.12 128.298 1076.12 131.556C1076.12 134.796 1078.01 136.956 1080.84 136.956C1082.87 136.956 1084.49 135.858 1085.05 134.13H1086.44C1085.84 136.56 1083.59 138.198 1080.82 138.198ZM1087.8 133.644C1087.8 130.98 1089.67 129.054 1092.23 129.054C1094.78 129.054 1096.65 130.98 1096.65 133.644C1096.65 136.29 1094.78 138.216 1092.23 138.216C1089.67 138.216 1087.8 136.29 1087.8 133.644ZM1089.06 133.626C1089.06 135.678 1090.35 137.1 1092.23 137.1C1094.08 137.1 1095.39 135.678 1095.39 133.626C1095.39 131.61 1094.08 130.17 1092.23 130.17C1090.35 130.17 1089.06 131.61 1089.06 133.626ZM1099.88 138H1098.64V129.288H1099.72L1099.9 130.8C1100.48 129.684 1101.63 129.054 1102.89 129.054C1105.28 129.054 1106.27 130.476 1106.27 132.672V138H1105.03V132.942C1105.03 130.908 1104.11 130.188 1102.67 130.188C1100.89 130.188 1099.88 131.484 1099.88 133.446V138ZM1110.75 138H1109.52V130.332H1107.78V129.288H1109.52V126.534H1110.75V129.288H1112.49V130.332H1110.75V138ZM1116.47 138.216C1114.62 138.216 1113.52 137.172 1113.52 135.642C1113.52 134.04 1114.74 133.032 1116.78 132.87L1119.66 132.636V132.348C1119.66 130.638 1118.63 130.098 1117.35 130.098C1115.84 130.098 1114.94 130.782 1114.94 131.952H1113.81C1113.81 130.188 1115.25 129.054 1117.39 129.054C1119.4 129.054 1120.88 130.062 1120.88 132.366V138H1119.84L1119.67 136.47C1119.13 137.568 1117.95 138.216 1116.47 138.216ZM1116.76 137.208C1118.59 137.208 1119.66 135.93 1119.66 134.04V133.572L1117.08 133.77C1115.44 133.914 1114.78 134.634 1114.78 135.606C1114.78 136.668 1115.57 137.208 1116.76 137.208ZM1122.76 133.662C1122.76 130.926 1124.43 129.054 1126.97 129.054C1128.99 129.054 1130.46 130.224 1130.81 132.024H1129.56C1129.24 130.818 1128.2 130.152 1126.99 130.152C1125.23 130.152 1123.98 131.502 1123.98 133.644C1123.98 135.714 1125.14 137.1 1126.9 137.1C1128.2 137.1 1129.24 136.38 1129.58 135.264H1130.84C1130.43 137.046 1128.88 138.216 1126.9 138.216C1124.43 138.216 1122.76 136.398 1122.76 133.662ZM1134.72 138H1133.5V130.332H1131.75V129.288H1133.5V126.534H1134.72V129.288H1136.47V130.332H1134.72V138ZM1143.26 133.518V125.112H1144.55V133.464C1144.55 135.732 1145.8 136.956 1148.05 136.956C1150.24 136.956 1151.48 135.696 1151.48 133.464V125.112H1152.78V133.518C1152.78 136.434 1150.98 138.216 1148.05 138.216C1145.06 138.216 1143.26 136.452 1143.26 133.518ZM1154.78 135.552H1155.97C1155.97 136.56 1156.73 137.19 1157.95 137.19C1159.3 137.19 1160.09 136.614 1160.09 135.678C1160.09 134.958 1159.73 134.544 1158.71 134.292L1157.21 133.914C1155.7 133.536 1154.96 132.744 1154.96 131.556C1154.96 130.026 1156.24 129.054 1158.11 129.054C1159.95 129.054 1161.14 130.062 1161.19 131.682H1159.99C1159.95 130.674 1159.25 130.08 1158.08 130.08C1156.85 130.08 1156.17 130.602 1156.17 131.538C1156.17 132.204 1156.64 132.672 1157.59 132.906L1159.09 133.284C1160.6 133.662 1161.28 134.364 1161.28 135.624C1161.28 137.19 1159.95 138.216 1157.97 138.216C1156.01 138.216 1154.78 137.172 1154.78 135.552Z" fill="#ADADAD"/>
<path d="M616.216 88.3V87.112H625.45V88.3H621.472V100H620.176V88.3H616.216ZM630.446 91.18V92.296H629.762C628.16 92.296 627.134 93.376 627.134 95.032V100H625.892V91.288H627.062L627.152 92.638C627.494 91.702 628.412 91.09 629.636 91.09C629.906 91.09 630.14 91.108 630.446 91.18ZM634.247 100.216C632.393 100.216 631.295 99.172 631.295 97.642C631.295 96.04 632.519 95.032 634.553 94.87L637.433 94.636V94.348C637.433 92.638 636.407 92.098 635.129 92.098C633.617 92.098 632.717 92.782 632.717 93.952H631.583C631.583 92.188 633.023 91.054 635.165 91.054C637.181 91.054 638.657 92.062 638.657 94.366V100H637.613L637.451 98.47C636.911 99.568 635.723 100.216 634.247 100.216ZM634.535 99.208C636.371 99.208 637.433 97.93 637.433 96.04V95.572L634.859 95.77C633.221 95.914 632.555 96.634 632.555 97.606C632.555 98.668 633.347 99.208 634.535 99.208ZM644.57 100.216C642.032 100.216 640.538 98.272 640.538 95.662C640.538 93.034 642.032 91.054 644.624 91.054C646.064 91.054 647.216 91.684 647.828 92.944V86.878H649.07V100H647.99L647.864 98.218C647.252 99.568 646.028 100.216 644.57 100.216ZM644.786 99.082C646.694 99.082 647.81 97.642 647.81 95.626C647.81 93.628 646.694 92.17 644.786 92.17C642.896 92.17 641.798 93.628 641.798 95.626C641.798 97.642 642.896 99.082 644.786 99.082ZM655.315 100.216C652.759 100.216 651.049 98.38 651.049 95.644C651.049 92.926 652.741 91.054 655.225 91.054C657.583 91.054 659.185 92.728 659.185 95.194V95.806H652.255C652.345 97.93 653.461 99.154 655.333 99.154C656.755 99.154 657.673 98.542 657.997 97.39H659.185C658.717 99.226 657.367 100.216 655.315 100.216ZM655.225 92.116C653.587 92.116 652.507 93.196 652.291 94.906H657.943C657.943 93.232 656.863 92.116 655.225 92.116Z" fill="#ADADAD"/>
<path d="M625.288 138H617.566V125.112H625.27V126.3H618.862V130.944H624.676V132.114H618.862V136.812H625.288V138ZM627.992 138H626.534L629.648 133.644L626.552 129.288H628.01L630.476 132.78L632.924 129.288H634.364L631.268 133.662L634.346 138H632.87L630.422 134.508L627.992 138ZM635.841 141.798V129.288H636.921L637.047 131.052C637.659 129.702 638.883 129.054 640.341 129.054C642.861 129.054 644.373 130.98 644.373 133.608C644.373 136.236 642.915 138.216 640.341 138.216C638.865 138.216 637.695 137.586 637.083 136.326V141.798H635.841ZM637.101 133.644C637.101 135.642 638.217 137.1 640.125 137.1C642.015 137.1 643.113 135.642 643.113 133.644C643.113 131.628 642.015 130.188 640.125 130.188C638.217 130.188 637.101 131.628 637.101 133.644ZM647.649 138H646.407V124.878H647.649V138ZM649.678 133.644C649.678 130.98 651.55 129.054 654.106 129.054C656.662 129.054 658.534 130.98 658.534 133.644C658.534 136.29 656.662 138.216 654.106 138.216C651.55 138.216 649.678 136.29 649.678 133.644ZM650.938 133.626C650.938 135.678 652.234 137.1 654.106 137.1C655.96 137.1 657.274 135.678 657.274 133.626C657.274 131.61 655.96 130.17 654.106 130.17C652.234 130.17 650.938 131.61 650.938 133.626ZM665.075 129.18V130.296H664.391C662.789 130.296 661.763 131.376 661.763 133.032V138H660.521V129.288H661.691L661.781 130.638C662.123 129.702 663.041 129.09 664.265 129.09C664.535 129.09 664.769 129.108 665.075 129.18ZM670.046 138.216C667.49 138.216 665.78 136.38 665.78 133.644C665.78 130.926 667.472 129.054 669.956 129.054C672.314 129.054 673.916 130.728 673.916 133.194V133.806H666.986C667.076 135.93 668.192 137.154 670.064 137.154C671.486 137.154 672.404 136.542 672.728 135.39H673.916C673.448 137.226 672.098 138.216 670.046 138.216ZM669.956 130.116C668.318 130.116 667.238 131.196 667.022 132.906H672.674C672.674 131.232 671.594 130.116 669.956 130.116Z" fill="#ADADAD"/>
<path d="M622.48 171.266H618.862V176H617.566V163.112H622.48C624.964 163.112 626.53 164.732 626.53 167.162C626.53 169.502 624.946 171.266 622.48 171.266ZM622.3 164.282H618.862V170.096H622.228C624.1 170.096 625.18 168.908 625.18 167.144C625.18 165.362 624.082 164.282 622.3 164.282ZM627.354 171.644C627.354 168.98 629.226 167.054 631.782 167.054C634.338 167.054 636.21 168.98 636.21 171.644C636.21 174.29 634.338 176.216 631.782 176.216C629.226 176.216 627.354 174.29 627.354 171.644ZM628.614 171.626C628.614 173.678 629.91 175.1 631.782 175.1C633.636 175.1 634.95 173.678 634.95 171.626C634.95 169.61 633.636 168.17 631.782 168.17C629.91 168.17 628.614 169.61 628.614 171.626ZM637.584 171.644C637.584 168.98 639.456 167.054 642.012 167.054C644.568 167.054 646.44 168.98 646.44 171.644C646.44 174.29 644.568 176.216 642.012 176.216C639.456 176.216 637.584 174.29 637.584 171.644ZM638.844 171.626C638.844 173.678 640.14 175.1 642.012 175.1C643.866 175.1 645.18 173.678 645.18 171.626C645.18 169.61 643.866 168.17 642.012 168.17C640.14 168.17 638.844 169.61 638.844 171.626ZM649.723 176H648.481V162.878H649.723V176Z" fill="#ADADAD"/>
<path d="M775.822 100.198C772.222 100.198 769.774 97.516 769.774 93.556C769.774 89.596 772.258 86.896 775.894 86.896C778.666 86.896 780.844 88.57 781.366 91.126H779.98C779.44 89.272 777.856 88.138 775.84 88.138C773.014 88.138 771.124 90.298 771.124 93.556C771.124 96.796 773.014 98.956 775.84 98.956C777.874 98.956 779.494 97.858 780.052 96.13H781.438C780.844 98.56 778.594 100.198 775.822 100.198ZM785.736 100.216C783.882 100.216 782.784 99.172 782.784 97.642C782.784 96.04 784.008 95.032 786.042 94.87L788.922 94.636V94.348C788.922 92.638 787.896 92.098 786.618 92.098C785.106 92.098 784.206 92.782 784.206 93.952H783.072C783.072 92.188 784.512 91.054 786.654 91.054C788.67 91.054 790.146 92.062 790.146 94.366V100H789.102L788.94 98.47C788.4 99.568 787.212 100.216 785.736 100.216ZM786.024 99.208C787.86 99.208 788.922 97.93 788.922 96.04V95.572L786.348 95.77C784.71 95.914 784.044 96.634 784.044 97.606C784.044 98.668 784.836 99.208 786.024 99.208ZM797.192 91.18V92.296H796.508C794.906 92.296 793.88 93.376 793.88 95.032V100H792.638V91.288H793.808L793.898 92.638C794.24 91.702 795.158 91.09 796.382 91.09C796.652 91.09 796.886 91.108 797.192 91.18ZM802.163 100.216C799.607 100.216 797.897 98.38 797.897 95.644C797.897 92.926 799.589 91.054 802.073 91.054C804.431 91.054 806.033 92.728 806.033 95.194V95.806H799.103C799.193 97.93 800.309 99.154 802.181 99.154C803.603 99.154 804.521 98.542 804.845 97.39H806.033C805.565 99.226 804.215 100.216 802.163 100.216ZM802.073 92.116C800.435 92.116 799.355 93.196 799.139 94.906H804.791C804.791 93.232 803.711 92.116 802.073 92.116ZM811.673 100.216C809.117 100.216 807.407 98.38 807.407 95.644C807.407 92.926 809.099 91.054 811.583 91.054C813.941 91.054 815.543 92.728 815.543 95.194V95.806H808.613C808.703 97.93 809.819 99.154 811.691 99.154C813.113 99.154 814.031 98.542 814.355 97.39H815.543C815.075 99.226 813.725 100.216 811.673 100.216ZM811.583 92.116C809.945 92.116 808.865 93.196 808.649 94.906H814.301C814.301 93.232 813.221 92.116 811.583 92.116ZM822.082 91.18V92.296H821.398C819.796 92.296 818.77 93.376 818.77 95.032V100H817.528V91.288H818.698L818.788 92.638C819.13 91.702 820.048 91.09 821.272 91.09C821.542 91.09 821.776 91.108 822.082 91.18ZM822.996 97.552H824.184C824.184 98.56 824.94 99.19 826.164 99.19C827.514 99.19 828.306 98.614 828.306 97.678C828.306 96.958 827.946 96.544 826.92 96.292L825.426 95.914C823.914 95.536 823.176 94.744 823.176 93.556C823.176 92.026 824.454 91.054 826.326 91.054C828.162 91.054 829.35 92.062 829.404 93.682H828.198C828.162 92.674 827.46 92.08 826.29 92.08C825.066 92.08 824.382 92.602 824.382 93.538C824.382 94.204 824.85 94.672 825.804 94.906L827.298 95.284C828.81 95.662 829.494 96.364 829.494 97.624C829.494 99.19 828.162 100.216 826.182 100.216C824.22 100.216 822.996 99.172 822.996 97.552Z" fill="#ADADAD"/>
<path d="M770.566 138V125.112H775.282C777.766 125.112 779.296 126.372 779.296 128.442C779.296 129.954 778.63 130.98 777.298 131.502C778.792 131.988 779.548 133.032 779.548 134.616C779.548 136.686 778 138 775.552 138H770.566ZM775.264 126.264H771.862V130.98H775.426C777.046 130.98 777.964 130.08 777.964 128.55C777.964 127.11 776.992 126.264 775.264 126.264ZM775.552 132.114H771.862V136.83H775.552C777.244 136.83 778.234 135.948 778.234 134.454C778.234 132.996 777.226 132.114 775.552 132.114ZM782.912 138H781.67V124.878H782.912V138ZM784.942 133.644C784.942 130.98 786.814 129.054 789.37 129.054C791.926 129.054 793.798 130.98 793.798 133.644C793.798 136.29 791.926 138.216 789.37 138.216C786.814 138.216 784.942 136.29 784.942 133.644ZM786.202 133.626C786.202 135.678 787.498 137.1 789.37 137.1C791.224 137.1 792.538 135.678 792.538 133.626C792.538 131.61 791.224 130.17 789.37 130.17C787.498 130.17 786.202 131.61 786.202 133.626ZM795.19 133.392C795.19 131.016 796.72 129.054 799.276 129.054C800.788 129.054 801.94 129.756 802.498 131.034L802.624 129.288H803.704V137.73C803.704 140.322 802.048 142.014 799.492 142.014C797.26 142.014 795.694 140.754 795.352 138.648H796.594C796.864 140.052 797.944 140.88 799.51 140.88C801.292 140.88 802.48 139.674 802.48 137.856V135.786C801.886 137.01 800.68 137.73 799.186 137.73C796.702 137.73 795.19 135.768 795.19 133.392ZM796.432 133.374C796.432 135.156 797.53 136.614 799.366 136.614C801.256 136.614 802.372 135.246 802.372 133.374C802.372 131.52 801.292 130.152 799.384 130.152C797.512 130.152 796.432 131.61 796.432 133.374Z" fill="#ADADAD"/>
<path d="M770.566 176V163.112H775.282C777.766 163.112 779.296 164.372 779.296 166.442C779.296 167.954 778.63 168.98 777.298 169.502C778.792 169.988 779.548 171.032 779.548 172.616C779.548 174.686 778 176 775.552 176H770.566ZM775.264 164.264H771.862V168.98H775.426C777.046 168.98 777.964 168.08 777.964 166.55C777.964 165.11 776.992 164.264 775.264 164.264ZM775.552 170.114H771.862V174.83H775.552C777.244 174.83 778.234 173.948 778.234 172.454C778.234 170.996 777.226 170.114 775.552 170.114ZM786.17 167.18V168.296H785.486C783.884 168.296 782.858 169.376 782.858 171.032V176H781.616V167.288H782.786L782.876 168.638C783.218 167.702 784.136 167.09 785.36 167.09C785.63 167.09 785.864 167.108 786.17 167.18ZM789.972 176.216C788.118 176.216 787.02 175.172 787.02 173.642C787.02 172.04 788.244 171.032 790.278 170.87L793.158 170.636V170.348C793.158 168.638 792.132 168.098 790.854 168.098C789.342 168.098 788.442 168.782 788.442 169.952H787.308C787.308 168.188 788.748 167.054 790.89 167.054C792.906 167.054 794.382 168.062 794.382 170.366V176H793.338L793.176 174.47C792.636 175.568 791.448 176.216 789.972 176.216ZM790.26 175.208C792.096 175.208 793.158 173.93 793.158 172.04V171.572L790.584 171.77C788.946 171.914 788.28 172.634 788.28 173.606C788.28 174.668 789.072 175.208 790.26 175.208ZM798.116 176H796.874V167.288H797.954L798.134 168.8C798.71 167.684 799.862 167.054 801.122 167.054C803.516 167.054 804.506 168.476 804.506 170.672V176H803.264V170.942C803.264 168.908 802.346 168.188 800.906 168.188C799.124 168.188 798.116 169.484 798.116 171.446V176ZM810.402 176.216C807.864 176.216 806.37 174.272 806.37 171.662C806.37 169.034 807.864 167.054 810.456 167.054C811.896 167.054 813.048 167.684 813.66 168.944V162.878H814.902V176H813.822L813.696 174.218C813.084 175.568 811.86 176.216 810.402 176.216ZM810.618 175.082C812.526 175.082 813.642 173.642 813.642 171.626C813.642 169.628 812.526 168.17 810.618 168.17C808.728 168.17 807.63 169.628 807.63 171.626C807.63 173.642 808.728 175.082 810.618 175.082ZM824.987 176.216C823.133 176.216 822.035 175.172 822.035 173.642C822.035 172.04 823.259 171.032 825.293 170.87L828.173 170.636V170.348C828.173 168.638 827.147 168.098 825.869 168.098C824.357 168.098 823.457 168.782 823.457 169.952H822.323C822.323 168.188 823.763 167.054 825.905 167.054C827.921 167.054 829.397 168.062 829.397 170.366V176H828.353L828.191 174.47C827.651 175.568 826.463 176.216 824.987 176.216ZM825.275 175.208C827.111 175.208 828.173 173.93 828.173 172.04V171.572L825.599 171.77C823.961 171.914 823.295 172.634 823.295 173.606C823.295 174.668 824.087 175.208 825.275 175.208ZM831.152 173.552H832.34C832.34 174.56 833.096 175.19 834.32 175.19C835.67 175.19 836.462 174.614 836.462 173.678C836.462 172.958 836.102 172.544 835.076 172.292L833.582 171.914C832.07 171.536 831.332 170.744 831.332 169.556C831.332 168.026 832.61 167.054 834.482 167.054C836.318 167.054 837.506 168.062 837.56 169.682H836.354C836.318 168.674 835.616 168.08 834.446 168.08C833.222 168.08 832.538 168.602 832.538 169.538C832.538 170.204 833.006 170.672 833.96 170.906L835.454 171.284C836.966 171.662 837.65 172.364 837.65 173.624C837.65 175.19 836.318 176.216 834.338 176.216C832.376 176.216 831.152 175.172 831.152 173.552ZM838.956 173.552H840.144C840.144 174.56 840.9 175.19 842.124 175.19C843.474 175.19 844.266 174.614 844.266 173.678C844.266 172.958 843.906 172.544 842.88 172.292L841.386 171.914C839.874 171.536 839.136 170.744 839.136 169.556C839.136 168.026 840.414 167.054 842.286 167.054C844.122 167.054 845.31 168.062 845.364 169.682H844.158C844.122 168.674 843.42 168.08 842.25 168.08C841.026 168.08 840.342 168.602 840.342 169.538C840.342 170.204 840.81 170.672 841.764 170.906L843.258 171.284C844.77 171.662 845.454 172.364 845.454 173.624C845.454 175.19 844.122 176.216 842.142 176.216C840.18 176.216 838.956 175.172 838.956 173.552ZM851.153 176.216C848.597 176.216 846.887 174.38 846.887 171.644C846.887 168.926 848.579 167.054 851.063 167.054C853.421 167.054 855.023 168.728 855.023 171.194V171.806H848.093C848.183 173.93 849.299 175.154 851.171 175.154C852.593 175.154 853.511 174.542 853.835 173.39H855.023C854.555 175.226 853.205 176.216 851.153 176.216ZM851.063 168.116C849.425 168.116 848.345 169.196 848.129 170.906H853.781C853.781 169.232 852.701 168.116 851.063 168.116ZM858.919 176H857.695V168.332H855.949V167.288H857.695V164.534H858.919V167.288H860.665V168.332H858.919V176ZM861.544 173.552H862.732C862.732 174.56 863.488 175.19 864.712 175.19C866.062 175.19 866.854 174.614 866.854 173.678C866.854 172.958 866.494 172.544 865.468 172.292L863.974 171.914C862.462 171.536 861.724 170.744 861.724 169.556C861.724 168.026 863.002 167.054 864.874 167.054C866.71 167.054 867.898 168.062 867.952 169.682H866.746C866.71 168.674 866.008 168.08 864.838 168.08C863.614 168.08 862.93 168.602 862.93 169.538C862.93 170.204 863.398 170.672 864.352 170.906L865.846 171.284C867.358 171.662 868.042 172.364 868.042 173.624C868.042 175.19 866.71 176.216 864.73 176.216C862.768 176.216 861.544 175.172 861.544 173.552Z" fill="#ADADAD"/>
<path d="M926.112 100L921.18 87.112H922.566L926.004 96.076C926.274 96.778 926.526 97.48 926.814 98.38C927.084 97.444 927.408 96.544 927.606 96.058L931.026 87.112H932.358L927.462 100H926.112ZM931.879 95.644C931.879 92.98 933.751 91.054 936.307 91.054C938.863 91.054 940.735 92.98 940.735 95.644C940.735 98.29 938.863 100.216 936.307 100.216C933.751 100.216 931.879 98.29 931.879 95.644ZM933.139 95.626C933.139 97.678 934.435 99.1 936.307 99.1C938.161 99.1 939.475 97.678 939.475 95.626C939.475 93.61 938.161 92.17 936.307 92.17C934.435 92.17 933.139 93.61 933.139 95.626ZM944.632 100H943.408V92.332H941.662V91.288H943.408V88.534H944.632V91.288H946.378V92.332H944.632V100ZM951.561 100.216C949.005 100.216 947.295 98.38 947.295 95.644C947.295 92.926 948.987 91.054 951.471 91.054C953.829 91.054 955.431 92.728 955.431 95.194V95.806H948.501C948.591 97.93 949.707 99.154 951.579 99.154C953.001 99.154 953.919 98.542 954.243 97.39H955.431C954.963 99.226 953.613 100.216 951.561 100.216ZM951.471 92.116C949.833 92.116 948.753 93.196 948.537 94.906H954.189C954.189 93.232 953.109 92.116 951.471 92.116Z" fill="#ADADAD"/>
<path d="M927.966 126.12C924.996 126.12 923.124 128.316 923.124 131.61C923.124 134.958 925.104 136.992 928.002 136.992C930.162 136.992 932.268 135.948 932.268 132.852V132.186H927.606V131.034H933.492V138.018H932.466L932.34 135.966C931.656 137.244 930.036 138.216 927.948 138.216C924.294 138.216 921.774 135.588 921.774 131.61C921.774 127.668 924.294 124.896 927.984 124.896C930.702 124.896 932.808 126.444 933.312 128.784H931.908C931.368 127.02 929.856 126.12 927.966 126.12ZM935.184 133.644C935.184 130.98 937.056 129.054 939.612 129.054C942.168 129.054 944.04 130.98 944.04 133.644C944.04 136.29 942.168 138.216 939.612 138.216C937.056 138.216 935.184 136.29 935.184 133.644ZM936.444 133.626C936.444 135.678 937.74 137.1 939.612 137.1C941.466 137.1 942.78 135.678 942.78 133.626C942.78 131.61 941.466 130.17 939.612 130.17C937.74 130.17 936.444 131.61 936.444 133.626ZM948.07 138L944.506 129.288H945.838L948.088 134.904C948.322 135.534 948.556 136.128 948.718 136.704C948.88 136.11 949.114 135.534 949.366 134.904L951.652 129.288H952.93L949.312 138H948.07ZM957.661 138.216C955.105 138.216 953.395 136.38 953.395 133.644C953.395 130.926 955.087 129.054 957.571 129.054C959.929 129.054 961.531 130.728 961.531 133.194V133.806H954.601C954.691 135.93 955.807 137.154 957.679 137.154C959.101 137.154 960.019 136.542 960.343 135.39H961.531C961.063 137.226 959.713 138.216 957.661 138.216ZM957.571 130.116C955.933 130.116 954.853 131.196 954.637 132.906H960.289C960.289 131.232 959.209 130.116 957.571 130.116ZM968.071 129.18V130.296H967.387C965.785 130.296 964.759 131.376 964.759 133.032V138H963.517V129.288H964.687L964.777 130.638C965.119 129.702 966.037 129.09 967.261 129.09C967.531 129.09 967.765 129.108 968.071 129.18ZM970.964 138H969.722V129.288H970.802L970.982 130.8C971.558 129.684 972.71 129.054 973.97 129.054C976.364 129.054 977.354 130.476 977.354 132.672V138H976.112V132.942C976.112 130.908 975.194 130.188 973.754 130.188C971.972 130.188 970.964 131.484 970.964 133.446V138ZM982.331 138.216C980.477 138.216 979.379 137.172 979.379 135.642C979.379 134.04 980.603 133.032 982.637 132.87L985.517 132.636V132.348C985.517 130.638 984.491 130.098 983.213 130.098C981.701 130.098 980.801 130.782 980.801 131.952H979.667C979.667 130.188 981.107 129.054 983.249 129.054C985.265 129.054 986.741 130.062 986.741 132.366V138H985.697L985.535 136.47C984.995 137.568 983.807 138.216 982.331 138.216ZM982.619 137.208C984.455 137.208 985.517 135.93 985.517 134.04V133.572L982.943 133.77C981.305 133.914 980.639 134.634 980.639 135.606C980.639 136.668 981.431 137.208 982.619 137.208ZM990.476 138H989.234V129.288H990.313L990.494 130.8C991.07 129.684 992.222 129.054 993.482 129.054C995.876 129.054 996.866 130.476 996.866 132.672V138H995.624V132.942C995.624 130.908 994.706 130.188 993.266 130.188C991.484 130.188 990.476 131.484 990.476 133.446V138ZM998.729 133.662C998.729 130.926 1000.4 129.054 1002.94 129.054C1004.96 129.054 1006.43 130.224 1006.77 132.024H1005.53C1005.21 130.818 1004.16 130.152 1002.96 130.152C1001.19 130.152 999.953 131.502 999.953 133.644C999.953 135.714 1001.1 137.1 1002.87 137.1C1004.16 137.1 1005.21 136.38 1005.55 135.264H1006.81C1006.4 137.046 1004.85 138.216 1002.87 138.216C1000.4 138.216 998.729 136.398 998.729 133.662ZM1012.35 138.216C1009.79 138.216 1008.08 136.38 1008.08 133.644C1008.08 130.926 1009.77 129.054 1012.26 129.054C1014.61 129.054 1016.22 130.728 1016.22 133.194V133.806H1009.29C1009.38 135.93 1010.49 137.154 1012.36 137.154C1013.79 137.154 1014.7 136.542 1015.03 135.39H1016.22C1015.75 137.226 1014.4 138.216 1012.35 138.216ZM1012.26 130.116C1010.62 130.116 1009.54 131.196 1009.32 132.906H1014.97C1014.97 131.232 1013.89 130.116 1012.26 130.116Z" fill="#ADADAD"/>
<path d="M926.49 176H922.566V163.112H926.454C930.342 163.112 932.934 165.704 932.934 169.556C932.934 173.408 930.36 176 926.49 176ZM926.4 164.3H923.862V174.812H926.436C929.586 174.812 931.602 172.76 931.602 169.556C931.602 166.334 929.586 164.3 926.4 164.3ZM938.659 176.216C936.103 176.216 934.393 174.38 934.393 171.644C934.393 168.926 936.085 167.054 938.569 167.054C940.927 167.054 942.529 168.728 942.529 171.194V171.806H935.599C935.689 173.93 936.805 175.154 938.677 175.154C940.099 175.154 941.017 174.542 941.341 173.39H942.529C942.061 175.226 940.711 176.216 938.659 176.216ZM938.569 168.116C936.931 168.116 935.851 169.196 935.635 170.906H941.287C941.287 169.232 940.207 168.116 938.569 168.116ZM946.716 176L943.152 167.288H944.484L946.734 172.904C946.968 173.534 947.202 174.128 947.364 174.704C947.526 174.11 947.76 173.534 948.012 172.904L950.298 167.288H951.576L947.958 176H946.716ZM956.307 176.216C953.751 176.216 952.041 174.38 952.041 171.644C952.041 168.926 953.733 167.054 956.217 167.054C958.575 167.054 960.177 168.728 960.177 171.194V171.806H953.247C953.337 173.93 954.453 175.154 956.325 175.154C957.747 175.154 958.665 174.542 958.989 173.39H960.177C959.709 175.226 958.359 176.216 956.307 176.216ZM956.217 168.116C954.579 168.116 953.499 169.196 953.283 170.906H958.935C958.935 169.232 957.855 168.116 956.217 168.116ZM963.459 176H962.217V162.878H963.459V176ZM965.489 171.644C965.489 168.98 967.361 167.054 969.917 167.054C972.473 167.054 974.345 168.98 974.345 171.644C974.345 174.29 972.473 176.216 969.917 176.216C967.361 176.216 965.489 174.29 965.489 171.644ZM966.749 171.626C966.749 173.678 968.045 175.1 969.917 175.1C971.771 175.1 973.085 173.678 973.085 171.626C973.085 169.61 971.771 168.17 969.917 168.17C968.045 168.17 966.749 169.61 966.749 171.626ZM976.331 179.798V167.288H977.411L977.537 169.052C978.149 167.702 979.373 167.054 980.831 167.054C983.351 167.054 984.863 168.98 984.863 171.608C984.863 174.236 983.405 176.216 980.831 176.216C979.355 176.216 978.185 175.586 977.573 174.326V179.798H976.331ZM977.591 171.644C977.591 173.642 978.707 175.1 980.615 175.1C982.505 175.1 983.603 173.642 983.603 171.644C983.603 169.628 982.505 168.188 980.615 168.188C978.707 168.188 977.591 169.628 977.591 171.644ZM990.497 176.216C987.941 176.216 986.231 174.38 986.231 171.644C986.231 168.926 987.923 167.054 990.407 167.054C992.765 167.054 994.367 168.728 994.367 171.194V171.806H987.437C987.527 173.93 988.643 175.154 990.515 175.154C991.937 175.154 992.855 174.542 993.179 173.39H994.367C993.899 175.226 992.549 176.216 990.497 176.216ZM990.407 168.116C988.769 168.116 987.689 169.196 987.473 170.906H993.125C993.125 169.232 992.045 168.116 990.407 168.116ZM1000.91 167.18V168.296H1000.22C998.621 168.296 997.595 169.376 997.595 171.032V176H996.353V167.288H997.523L997.613 168.638C997.955 167.702 998.873 167.09 1000.1 167.09C1000.37 167.09 1000.6 167.108 1000.91 167.18ZM1001.82 173.552H1003.01C1003.01 174.56 1003.76 175.19 1004.99 175.19C1006.34 175.19 1007.13 174.614 1007.13 173.678C1007.13 172.958 1006.77 172.544 1005.74 172.292L1004.25 171.914C1002.74 171.536 1002 170.744 1002 169.556C1002 168.026 1003.28 167.054 1005.15 167.054C1006.99 167.054 1008.17 168.062 1008.23 169.682H1007.02C1006.99 168.674 1006.28 168.08 1005.11 168.08C1003.89 168.08 1003.21 168.602 1003.21 169.538C1003.21 170.204 1003.67 170.672 1004.63 170.906L1006.12 171.284C1007.63 171.662 1008.32 172.364 1008.32 173.624C1008.32 175.19 1006.99 176.216 1005.01 176.216C1003.04 176.216 1001.82 175.172 1001.82 173.552Z" fill="#ADADAD"/>
<path d="M776.02 36.216C772.186 36.216 769.702 33.552 769.702 29.43C769.702 25.344 772.276 22.626 776.128 22.626C779.242 22.626 781.564 24.444 782.014 27.27H779.584C779.134 25.74 777.82 24.84 776.074 24.84C773.644 24.84 772.114 26.604 772.114 29.412C772.114 32.202 773.662 34.002 776.074 34.002C777.856 34.002 779.224 33.066 779.656 31.608H782.05C781.546 34.38 779.134 36.216 776.02 36.216ZM783.27 31.536C783.27 28.764 785.268 26.856 788.022 26.856C790.776 26.856 792.774 28.764 792.774 31.536C792.774 34.308 790.776 36.216 788.022 36.216C785.268 36.216 783.27 34.308 783.27 31.536ZM785.466 31.536C785.466 33.156 786.51 34.254 788.022 34.254C789.534 34.254 790.578 33.156 790.578 31.536C790.578 29.916 789.534 28.818 788.022 28.818C786.51 28.818 785.466 29.916 785.466 31.536ZM796.711 36H794.515V27.108H796.531L796.711 28.152C797.161 27.414 798.061 26.838 799.339 26.838C800.689 26.838 801.625 27.504 802.093 28.53C802.543 27.504 803.587 26.838 804.937 26.838C807.097 26.838 808.285 28.134 808.285 30.186V36H806.107V30.762C806.107 29.484 805.423 28.818 804.379 28.818C803.317 28.818 802.507 29.502 802.507 30.96V36H800.311V30.744C800.311 29.502 799.645 28.836 798.601 28.836C797.557 28.836 796.711 29.52 796.711 30.96V36ZM810.441 40.122V27.108H812.475L812.619 28.458C813.159 27.432 814.329 26.838 815.679 26.838C818.181 26.838 819.837 28.656 819.837 31.446C819.837 34.218 818.325 36.234 815.679 36.234C814.347 36.234 813.195 35.712 812.637 34.812V40.122H810.441ZM812.655 31.554C812.655 33.156 813.645 34.254 815.157 34.254C816.705 34.254 817.623 33.138 817.623 31.554C817.623 29.97 816.705 28.836 815.157 28.836C813.645 28.836 812.655 29.952 812.655 31.554ZM824.231 36.234C822.341 36.234 821.189 35.136 821.189 33.462C821.189 31.824 822.377 30.798 824.483 30.636L827.147 30.438V30.24C827.147 29.034 826.427 28.548 825.311 28.548C824.015 28.548 823.295 29.088 823.295 30.024H821.423C821.423 28.098 823.007 26.838 825.419 26.838C827.813 26.838 829.289 28.134 829.289 30.6V36H827.363L827.201 34.686C826.823 35.604 825.617 36.234 824.231 36.234ZM824.951 34.578C826.301 34.578 827.165 33.768 827.165 32.4V31.932L825.311 32.076C823.943 32.202 823.421 32.652 823.421 33.372C823.421 34.182 823.961 34.578 824.951 34.578ZM833.643 36H831.447V27.108H833.481L833.661 28.26C834.219 27.36 835.299 26.838 836.505 26.838C838.737 26.838 839.889 28.224 839.889 30.528V36H837.693V31.05C837.693 29.556 836.955 28.836 835.821 28.836C834.471 28.836 833.643 29.772 833.643 31.212V36ZM841.096 40.122V38.286H842.41C843.274 38.286 843.814 38.088 844.192 37.044L844.444 36.378L840.862 27.108H843.184L845.47 33.588L847.882 27.108H850.15L845.794 37.98C845.128 39.636 844.192 40.32 842.734 40.32C842.122 40.32 841.582 40.248 841.096 40.122Z" fill="white"/>
<path d="M927.66 31.464H924.762V36H922.458V22.842H927.66C930.306 22.842 932.016 24.57 932.016 27.144C932.016 29.682 930.288 31.464 927.66 31.464ZM927.21 24.894H924.762V29.412H927.174C928.758 29.412 929.604 28.566 929.604 27.126C929.604 25.686 928.74 24.894 927.21 24.894ZM939.21 27.072V29.106H938.4C936.816 29.106 935.826 29.952 935.826 31.68V36H933.63V27.126H935.7L935.826 28.422C936.204 27.54 937.05 26.946 938.238 26.946C938.544 26.946 938.85 26.982 939.21 27.072ZM939.876 31.536C939.876 28.764 941.874 26.856 944.628 26.856C947.382 26.856 949.38 28.764 949.38 31.536C949.38 34.308 947.382 36.216 944.628 36.216C941.874 36.216 939.876 34.308 939.876 31.536ZM942.072 31.536C942.072 33.156 943.116 34.254 944.628 34.254C946.14 34.254 947.184 33.156 947.184 31.536C947.184 29.916 946.14 28.818 944.628 28.818C943.116 28.818 942.072 29.916 942.072 31.536ZM954.056 36H951.86V28.944H950.15V27.108H951.86V24.336H954.056V27.108H955.784V28.944H954.056V36ZM956.54 31.536C956.54 28.764 958.538 26.856 961.292 26.856C964.046 26.856 966.044 28.764 966.044 31.536C966.044 34.308 964.046 36.216 961.292 36.216C958.538 36.216 956.54 34.308 956.54 31.536ZM958.736 31.536C958.736 33.156 959.78 34.254 961.292 34.254C962.804 34.254 963.848 33.156 963.848 31.536C963.848 29.916 962.804 28.818 961.292 28.818C959.78 28.818 958.736 29.916 958.736 31.536ZM967.262 31.536C967.262 28.782 969.08 26.838 971.708 26.838C974.138 26.838 975.794 28.188 976.028 30.33H973.832C973.58 29.322 972.842 28.8 971.798 28.8C970.394 28.8 969.458 29.862 969.458 31.536C969.458 33.21 970.322 34.254 971.726 34.254C972.824 34.254 973.598 33.714 973.832 32.742H976.046C975.776 34.812 974.048 36.234 971.726 36.234C969.026 36.234 967.262 34.362 967.262 31.536ZM977.159 31.536C977.159 28.764 979.157 26.856 981.911 26.856C984.665 26.856 986.663 28.764 986.663 31.536C986.663 34.308 984.665 36.216 981.911 36.216C979.157 36.216 977.159 34.308 977.159 31.536ZM979.355 31.536C979.355 33.156 980.399 34.254 981.911 34.254C983.423 34.254 984.467 33.156 984.467 31.536C984.467 29.916 983.423 28.818 981.911 28.818C980.399 28.818 979.355 29.916 979.355 31.536ZM990.618 36H988.44V22.608H990.618V36Z" fill="white"/>
<path d="M921.306 279.966V277.842H931.314V279.966H927.462V291H925.158V279.966H921.306ZM937.259 282.072V284.106H936.449C934.865 284.106 933.875 284.952 933.875 286.68V291H931.679V282.126H933.749L933.875 283.422C934.253 282.54 935.099 281.946 936.287 281.946C936.593 281.946 936.899 281.982 937.259 282.072ZM941.04 291.234C939.15 291.234 937.998 290.136 937.998 288.462C937.998 286.824 939.186 285.798 941.292 285.636L943.956 285.438V285.24C943.956 284.034 943.236 283.548 942.12 283.548C940.824 283.548 940.104 284.088 940.104 285.024H938.232C938.232 283.098 939.816 281.838 942.228 281.838C944.622 281.838 946.098 283.134 946.098 285.6V291H944.172L944.01 289.686C943.632 290.604 942.426 291.234 941.04 291.234ZM941.76 289.578C943.11 289.578 943.974 288.768 943.974 287.4V286.932L942.12 287.076C940.752 287.202 940.23 287.652 940.23 288.372C940.23 289.182 940.77 289.578 941.76 289.578ZM951.909 291.234C949.335 291.234 947.733 289.344 947.733 286.59C947.733 283.818 949.353 281.838 952.035 281.838C953.277 281.838 954.375 282.36 954.933 283.242V277.608H957.111V291H955.095L954.951 289.614C954.411 290.64 953.259 291.234 951.909 291.234ZM952.395 289.218C953.925 289.218 954.915 288.12 954.915 286.518C954.915 284.916 953.925 283.8 952.395 283.8C950.865 283.8 949.929 284.934 949.929 286.518C949.929 288.102 950.865 289.218 952.395 289.218ZM963.378 291.234C960.732 291.234 958.878 289.308 958.878 286.554C958.878 283.764 960.696 281.838 963.306 281.838C965.97 281.838 967.662 283.62 967.662 286.392V287.058L960.966 287.076C961.128 288.642 961.956 289.434 963.414 289.434C964.62 289.434 965.412 288.966 965.664 288.12H967.698C967.32 290.064 965.7 291.234 963.378 291.234ZM963.324 283.638C962.028 283.638 961.236 284.34 961.02 285.672H965.484C965.484 284.448 964.638 283.638 963.324 283.638ZM971.615 291H969.419V282.108H971.435L971.615 283.152C972.065 282.414 972.965 281.838 974.243 281.838C975.593 281.838 976.529 282.504 976.997 283.53C977.447 282.504 978.491 281.838 979.841 281.838C982.001 281.838 983.189 283.134 983.189 285.186V291H981.011V285.762C981.011 284.484 980.327 283.818 979.283 283.818C978.221 283.818 977.411 284.502 977.411 285.96V291H975.215V285.744C975.215 284.502 974.549 283.836 973.505 283.836C972.461 283.836 971.615 284.52 971.615 285.96V291ZM987.991 291.234C986.101 291.234 984.949 290.136 984.949 288.462C984.949 286.824 986.137 285.798 988.243 285.636L990.907 285.438V285.24C990.907 284.034 990.187 283.548 989.071 283.548C987.775 283.548 987.055 284.088 987.055 285.024H985.183C985.183 283.098 986.767 281.838 989.179 281.838C991.573 281.838 993.049 283.134 993.049 285.6V291H991.123L990.961 289.686C990.583 290.604 989.377 291.234 987.991 291.234ZM988.711 289.578C990.061 289.578 990.925 288.768 990.925 287.4V286.932L989.071 287.076C987.703 287.202 987.181 287.652 987.181 288.372C987.181 289.182 987.721 289.578 988.711 289.578ZM1000.79 282.072V284.106H999.976C998.392 284.106 997.402 284.952 997.402 286.68V291H995.206V282.126H997.276L997.402 283.422C997.78 282.54 998.626 281.946 999.814 281.946C1000.12 281.946 1000.43 281.982 1000.79 282.072ZM1004.49 291H1002.31V277.608H1004.49V285.834L1007.94 282.108H1010.7L1007.31 285.636L1010.62 291H1008.1L1005.78 287.256L1004.49 288.606V291ZM1022.34 286.464H1019.44V291H1017.13V277.842H1022.34C1024.98 277.842 1026.69 279.57 1026.69 282.144C1026.69 284.682 1024.96 286.464 1022.34 286.464ZM1021.89 279.894H1019.44V284.412H1021.85C1023.43 284.412 1024.28 283.566 1024.28 282.126C1024.28 280.686 1023.42 279.894 1021.89 279.894ZM1027.34 286.536C1027.34 283.764 1029.34 281.856 1032.1 281.856C1034.85 281.856 1036.85 283.764 1036.85 286.536C1036.85 289.308 1034.85 291.216 1032.1 291.216C1029.34 291.216 1027.34 289.308 1027.34 286.536ZM1029.54 286.536C1029.54 288.156 1030.58 289.254 1032.1 289.254C1033.61 289.254 1034.65 288.156 1034.65 286.536C1034.65 284.916 1033.61 283.818 1032.1 283.818C1030.58 283.818 1029.54 284.916 1029.54 286.536ZM1040.8 291H1038.63V277.608H1040.8V291ZM1044.2 280.326C1043.45 280.326 1042.85 279.732 1042.85 278.994C1042.85 278.256 1043.45 277.68 1044.2 277.68C1044.92 277.68 1045.52 278.256 1045.52 278.994C1045.52 279.732 1044.92 280.326 1044.2 280.326ZM1043.11 291V282.108H1045.3V291H1043.11ZM1047.05 286.536C1047.05 283.782 1048.87 281.838 1051.5 281.838C1053.93 281.838 1055.58 283.188 1055.82 285.33H1053.62C1053.37 284.322 1052.63 283.8 1051.59 283.8C1050.18 283.8 1049.25 284.862 1049.25 286.536C1049.25 288.21 1050.11 289.254 1051.51 289.254C1052.61 289.254 1053.39 288.714 1053.62 287.742H1055.83C1055.56 289.812 1053.84 291.234 1051.51 291.234C1048.81 291.234 1047.05 289.362 1047.05 286.536ZM1056.52 295.122V293.286H1057.83C1058.7 293.286 1059.24 293.088 1059.61 292.044L1059.87 291.378L1056.28 282.108H1058.61L1060.89 288.588L1063.3 282.108H1065.57L1061.22 292.98C1060.55 294.636 1059.61 295.32 1058.16 295.32C1057.54 295.32 1057 295.248 1056.52 295.122Z" fill="#ADADAD"/>
<path d="M1093.66 286.464H1090.76V291H1088.46V277.842H1093.66C1096.31 277.842 1098.02 279.57 1098.02 282.144C1098.02 284.682 1096.29 286.464 1093.66 286.464ZM1093.21 279.894H1090.76V284.412H1093.17C1094.76 284.412 1095.6 283.566 1095.6 282.126C1095.6 280.686 1094.74 279.894 1093.21 279.894ZM1105.21 282.072V284.106H1104.4C1102.82 284.106 1101.83 284.952 1101.83 286.68V291H1099.63V282.126H1101.7L1101.83 283.422C1102.2 282.54 1103.05 281.946 1104.24 281.946C1104.54 281.946 1104.85 281.982 1105.21 282.072ZM1107.79 280.326C1107.04 280.326 1106.44 279.732 1106.44 278.994C1106.44 278.256 1107.04 277.68 1107.79 277.68C1108.51 277.68 1109.11 278.256 1109.11 278.994C1109.11 279.732 1108.51 280.326 1107.79 280.326ZM1106.7 291V282.108H1108.89V291H1106.7ZM1113.68 291L1110.15 282.108H1112.49L1114.04 286.194C1114.42 287.256 1114.73 288.174 1114.83 288.66C1114.96 288.102 1115.28 287.166 1115.66 286.194L1117.28 282.108H1119.55L1115.84 291H1113.68ZM1123.02 291.234C1121.13 291.234 1119.98 290.136 1119.98 288.462C1119.98 286.824 1121.16 285.798 1123.27 285.636L1125.93 285.438V285.24C1125.93 284.034 1125.21 283.548 1124.1 283.548C1122.8 283.548 1122.08 284.088 1122.08 285.024H1120.21C1120.21 283.098 1121.79 281.838 1124.21 281.838C1126.6 281.838 1128.08 283.134 1128.08 285.6V291H1126.15L1125.99 289.686C1125.61 290.604 1124.4 291.234 1123.02 291.234ZM1123.74 289.578C1125.09 289.578 1125.95 288.768 1125.95 287.4V286.932L1124.1 287.076C1122.73 287.202 1122.21 287.652 1122.21 288.372C1122.21 289.182 1122.75 289.578 1123.74 289.578ZM1129.71 286.536C1129.71 283.782 1131.53 281.838 1134.16 281.838C1136.59 281.838 1138.24 283.188 1138.48 285.33H1136.28C1136.03 284.322 1135.29 283.8 1134.25 283.8C1132.84 283.8 1131.91 284.862 1131.91 286.536C1131.91 288.21 1132.77 289.254 1134.18 289.254C1135.27 289.254 1136.05 288.714 1136.28 287.742H1138.5C1138.23 289.812 1136.5 291.234 1134.18 291.234C1131.48 291.234 1129.71 289.362 1129.71 286.536ZM1139.18 295.122V293.286H1140.49C1141.36 293.286 1141.9 293.088 1142.28 292.044L1142.53 291.378L1138.95 282.108H1141.27L1143.55 288.588L1145.97 282.108H1148.23L1143.88 292.98C1143.21 294.636 1142.28 295.32 1140.82 295.32C1140.21 295.32 1139.67 295.248 1139.18 295.122ZM1159.86 286.464H1156.96V291H1154.66V277.842H1159.86C1162.51 277.842 1164.22 279.57 1164.22 282.144C1164.22 284.682 1162.49 286.464 1159.86 286.464ZM1159.41 279.894H1156.96V284.412H1159.37C1160.96 284.412 1161.8 283.566 1161.8 282.126C1161.8 280.686 1160.94 279.894 1159.41 279.894ZM1164.87 286.536C1164.87 283.764 1166.87 281.856 1169.62 281.856C1172.37 281.856 1174.37 283.764 1174.37 286.536C1174.37 289.308 1172.37 291.216 1169.62 291.216C1166.87 291.216 1164.87 289.308 1164.87 286.536ZM1167.06 286.536C1167.06 288.156 1168.11 289.254 1169.62 289.254C1171.13 289.254 1172.18 288.156 1172.18 286.536C1172.18 284.916 1171.13 283.818 1169.62 283.818C1168.11 283.818 1167.06 284.916 1167.06 286.536ZM1178.33 291H1176.15V277.608H1178.33V291ZM1181.73 280.326C1180.97 280.326 1180.38 279.732 1180.38 278.994C1180.38 278.256 1180.97 277.68 1181.73 277.68C1182.45 277.68 1183.04 278.256 1183.04 278.994C1183.04 279.732 1182.45 280.326 1181.73 280.326ZM1180.63 291V282.108H1182.83V291H1180.63ZM1184.57 286.536C1184.57 283.782 1186.39 281.838 1189.02 281.838C1191.45 281.838 1193.1 283.188 1193.34 285.33H1191.14C1190.89 284.322 1190.15 283.8 1189.11 283.8C1187.7 283.8 1186.77 284.862 1186.77 286.536C1186.77 288.21 1187.63 289.254 1189.04 289.254C1190.13 289.254 1190.91 288.714 1191.14 287.742H1193.36C1193.09 289.812 1191.36 291.234 1189.04 291.234C1186.34 291.234 1184.57 289.362 1184.57 286.536ZM1194.04 295.122V293.286H1195.36C1196.22 293.286 1196.76 293.088 1197.14 292.044L1197.39 291.378L1193.81 282.108H1196.13L1198.42 288.588L1200.83 282.108H1203.1L1198.74 292.98C1198.07 294.636 1197.14 295.32 1195.68 295.32C1195.07 295.32 1194.53 295.248 1194.04 295.122Z" fill="#ADADAD"/>
<path d="M1074.73 36H1072.46V22.842H1074.74L1080.92 32.166V22.842H1083.19V36H1080.92L1074.73 26.676V36ZM1089.75 36.234C1087.11 36.234 1085.25 34.308 1085.25 31.554C1085.25 28.764 1087.07 26.838 1089.68 26.838C1092.34 26.838 1094.04 28.62 1094.04 31.392V32.058L1087.34 32.076C1087.5 33.642 1088.33 34.434 1089.79 34.434C1090.99 34.434 1091.79 33.966 1092.04 33.12H1094.07C1093.69 35.064 1092.07 36.234 1089.75 36.234ZM1089.7 28.638C1088.4 28.638 1087.61 29.34 1087.39 30.672H1091.86C1091.86 29.448 1091.01 28.638 1089.7 28.638ZM1099.77 36.234C1097.13 36.234 1095.27 34.308 1095.27 31.554C1095.27 28.764 1097.09 26.838 1099.7 26.838C1102.36 26.838 1104.06 28.62 1104.06 31.392V32.058L1097.36 32.076C1097.52 33.642 1098.35 34.434 1099.81 34.434C1101.01 34.434 1101.81 33.966 1102.06 33.12H1104.09C1103.71 35.064 1102.09 36.234 1099.77 36.234ZM1099.72 28.638C1098.42 28.638 1097.63 29.34 1097.41 30.672H1101.88C1101.88 29.448 1101.03 28.638 1099.72 28.638ZM1109.47 36.234C1106.89 36.234 1105.29 34.344 1105.29 31.59C1105.29 28.818 1106.91 26.838 1109.59 26.838C1110.84 26.838 1111.93 27.36 1112.49 28.242V22.608H1114.67V36H1112.65L1112.51 34.614C1111.97 35.64 1110.82 36.234 1109.47 36.234ZM1109.95 34.218C1111.48 34.218 1112.47 33.12 1112.47 31.518C1112.47 29.916 1111.48 28.8 1109.95 28.8C1108.42 28.8 1107.49 29.934 1107.49 31.518C1107.49 33.102 1108.42 34.218 1109.95 34.218ZM1124.44 36H1122.13V22.842H1124.44V28.278H1130.27V22.842H1132.57V36H1130.27V30.42H1124.44V36ZM1139.15 36.234C1136.5 36.234 1134.65 34.308 1134.65 31.554C1134.65 28.764 1136.47 26.838 1139.08 26.838C1141.74 26.838 1143.43 28.62 1143.43 31.392V32.058L1136.74 32.076C1136.9 33.642 1137.73 34.434 1139.18 34.434C1140.39 34.434 1141.18 33.966 1141.43 33.12H1143.47C1143.09 35.064 1141.47 36.234 1139.15 36.234ZM1139.09 28.638C1137.8 28.638 1137.01 29.34 1136.79 30.672H1141.25C1141.25 29.448 1140.41 28.638 1139.09 28.638ZM1147.4 36H1145.22V22.608H1147.4V36ZM1149.71 40.122V27.108H1151.74L1151.88 28.458C1152.42 27.432 1153.59 26.838 1154.94 26.838C1157.45 26.838 1159.1 28.656 1159.1 31.446C1159.1 34.218 1157.59 36.234 1154.94 36.234C1153.61 36.234 1152.46 35.712 1151.9 34.812V40.122H1149.71ZM1151.92 31.554C1151.92 33.156 1152.91 34.254 1154.42 34.254C1155.97 34.254 1156.89 33.138 1156.89 31.554C1156.89 29.97 1155.97 28.836 1154.42 28.836C1152.91 28.836 1151.92 29.952 1151.92 31.554ZM1165.24 32.634H1163.24V32.22C1163.24 30.582 1164.25 29.736 1165.21 28.998C1166.02 28.35 1166.75 27.738 1166.75 26.694C1166.75 25.47 1166 24.66 1164.74 24.66C1163.46 24.66 1162.58 25.614 1162.58 27H1160.29C1160.29 24.426 1162.18 22.608 1164.79 22.608C1167.47 22.608 1169.09 24.156 1169.09 26.55C1169.09 28.476 1167.85 29.394 1166.81 30.132C1165.93 30.762 1165.24 31.302 1165.24 32.22V32.634ZM1164.32 36.234C1163.51 36.234 1162.87 35.586 1162.87 34.812C1162.87 34.02 1163.51 33.372 1164.32 33.372C1165.12 33.372 1165.78 34.02 1165.78 34.812C1165.78 35.568 1165.12 36.234 1164.32 36.234Z" fill="white"/>
<defs>
<clipPath id="clip0_143_3904">
<rect width="22" height="22" fill="white" transform="translate(69 21)"/>
</clipPath>
</defs>
</svg>
