<svg width="132" height="41" viewBox="0 0 132 41" fill="none" xmlns="http://www.w3.org/2000/svg">
<rect x="0.5" y="0.5" width="131" height="40" rx="20" stroke="url(#paint0_linear_125_1915)"/>
<path d="M40.88 21.272C40.88 17.72 42.624 15.32 45.472 15.32C48.304 15.32 50.048 17.72 50.048 21.272C50.048 24.84 48.336 27.208 45.472 27.208C42.592 27.208 40.88 24.84 40.88 21.272ZM42.016 21.272C42.016 24.248 43.28 26.168 45.472 26.168C47.664 26.168 48.928 24.248 48.928 21.272C48.928 18.28 47.664 16.376 45.472 16.376C43.28 16.376 42.016 18.28 42.016 21.272ZM52.3779 27H51.0819L53.8499 23.128L51.0979 19.256H52.3939L54.5859 22.36L56.7619 19.256H58.0419L55.2899 23.144L58.0259 27H56.7139L54.5379 23.896L52.3779 27ZM61.0991 16.584H58.7631V15.544H62.2031V27H61.0991V16.584ZM66.9229 27.192C65.2749 27.192 64.2989 26.264 64.2989 24.904C64.2989 23.48 65.3869 22.584 67.1949 22.44L69.7549 22.232V21.976C69.7549 20.456 68.8429 19.976 67.7069 19.976C66.3629 19.976 65.5629 20.584 65.5629 21.624H64.5549C64.5549 20.056 65.8349 19.048 67.7389 19.048C69.5309 19.048 70.8429 19.944 70.8429 21.992V27H69.9149L69.7709 25.64C69.2909 26.616 68.2349 27.192 66.9229 27.192ZM67.1789 26.296C68.8109 26.296 69.7549 25.16 69.7549 23.48V23.064L67.4669 23.24C66.0109 23.368 65.4189 24.008 65.4189 24.872C65.4189 25.816 66.1229 26.296 67.1789 26.296ZM80.1783 27H72.6263V26.088L76.2903 22.888C78.4023 21.048 78.9463 20.248 78.9463 18.888C78.9463 17.336 78.0183 16.392 76.4983 16.392C74.9143 16.392 73.8743 17.544 73.8263 19.32H72.6743C72.7383 16.92 74.2582 15.336 76.5143 15.336C78.6743 15.336 80.1143 16.728 80.1143 18.824C80.1143 20.488 79.3623 21.592 77.0743 23.592L74.4023 25.928H80.1783V27ZM83.0026 27H82.0426V15.336H83.1466V20.76C83.6906 19.624 84.7466 19.048 86.0586 19.048C88.3146 19.048 89.6266 20.808 89.6266 23.144C89.6266 25.464 88.2826 27.192 86.0266 27.192C84.7306 27.192 83.6586 26.616 83.1146 25.416L83.0026 27ZM83.1626 23.112C83.1626 24.904 84.1546 26.184 85.8506 26.184C87.5306 26.184 88.5066 24.904 88.5066 23.112C88.5066 21.336 87.5306 20.04 85.8506 20.04C84.1546 20.04 83.1626 21.336 83.1626 23.112ZM90.8424 23.144C90.8424 20.712 92.3304 19.048 94.5864 19.048C96.3784 19.048 97.6904 20.088 97.9944 21.688H96.8904C96.6024 20.616 95.6744 20.024 94.6024 20.024C93.0344 20.024 91.9304 21.224 91.9304 23.128C91.9304 24.968 92.9544 26.2 94.5224 26.2C95.6744 26.2 96.6024 25.56 96.9064 24.568H98.0264C97.6584 26.152 96.2824 27.192 94.5224 27.192C92.3304 27.192 90.8424 25.576 90.8424 23.144ZM100.33 27.176C99.7864 27.176 99.3224 26.728 99.3224 26.2C99.3224 25.656 99.7864 25.192 100.33 25.192C100.874 25.192 101.338 25.656 101.338 26.2C101.338 26.728 100.874 27.176 100.33 27.176ZM104.518 27.176C103.974 27.176 103.51 26.728 103.51 26.2C103.51 25.656 103.974 25.192 104.518 25.192C105.062 25.192 105.526 25.656 105.526 26.2C105.526 26.728 105.062 27.176 104.518 27.176ZM108.034 27H106.738L109.506 23.128L106.754 19.256H108.05L110.242 22.36L112.418 19.256H113.698L110.946 23.144L113.682 27H112.37L110.194 23.896L108.034 27Z" fill="white"/>
<path d="M15.25 21C15.25 20.1136 15.4246 19.2358 15.7638 18.4169C16.103 17.5979 16.6002 16.8538 17.227 16.227C17.8538 15.6002 18.5979 15.103 19.4169 14.7638C20.2358 14.4246 21.1136 14.25 22 14.25C22.8864 14.25 23.7642 14.4246 24.5831 14.7638C25.4021 15.103 26.1462 15.6002 26.773 16.227C27.3998 16.8538 27.897 17.5979 28.2362 18.4169C28.5754 19.2358 28.75 20.1136 28.75 21C28.75 22.7902 28.0388 24.5071 26.773 25.773C25.5071 27.0388 23.7902 27.75 22 27.75C20.2098 27.75 18.4929 27.0388 17.227 25.773C15.9612 24.5071 15.25 22.7902 15.25 21Z" fill="#0E5BFF"/>
<path fill-rule="evenodd" clip-rule="evenodd" d="M22 25.7812C23.2681 25.7812 24.4842 25.2775 25.3809 24.3809C26.2775 23.4842 26.7812 22.2681 26.7812 21C26.7812 19.7319 26.2775 18.5158 25.3809 17.6191C24.4842 16.7225 23.2681 16.2188 22 16.2188C20.7319 16.2188 19.5158 16.7225 18.6191 17.6191C17.7225 18.5158 17.2188 19.7319 17.2188 21C17.2188 22.2681 17.7225 23.4842 18.6191 24.3809C19.5158 25.2775 20.7319 25.7812 22 25.7812ZM21.4375 19.5938C20.9718 19.5938 20.5938 19.9718 20.5938 20.4375V21.5625C20.5938 22.0283 20.9718 22.4062 21.4375 22.4062H22.5625C23.0283 22.4062 23.4062 22.0283 23.4062 21.5625V20.4375C23.4062 19.9718 23.0283 19.5938 22.5625 19.5938H21.4375Z" fill="white"/>
<defs>
<linearGradient id="paint0_linear_125_1915" x1="0" y1="20.5" x2="132" y2="20.5" gradientUnits="userSpaceOnUse">
<stop stop-color="#3CFDF6"/>
<stop offset="1" stop-color="#FA51E9"/>
</linearGradient>
</defs>
</svg>
